<svg xmlns="http://www.w3.org/2000/svg" xmlns:v="https://svgstorm.com"
viewBox = "0 0 1098 510"
width="1098"
height="510">
<g fill="None" fill-opacity="0.0" stroke="#E5E8DE" stroke-opacity="1.00" stroke-width="0.3"><path d="
M 0.00 510.00 
L 1098.00 510.00
L 1098.00 0.00
L 0.00 0.00
L 0.00 510.00
M 1027.00 231.00 
C 1027.00 241.28 1027.36 252.50 1026.00 262.00
C 1025.68 270.39 1024.46 278.54 1024.00 287.00
C 1023.84 289.96 1022.41 291.87 1022.00 294.00
C 1021.87 297.32 1022.00 300.68 1022.00 304.00
C 1022.00 307.10 1021.23 310.64 1021.00 313.00
C 1021.00 328.87 1021.53 347.87 1017.22 362.22 C 1012.91 376.58 1006.56 388.18 991.00 390.00 C 975.43 391.81 959.96 396.05 944.00 397.00
C 940.80 397.74 937.26 398.66 933.00 399.00
C 868.76 404.10 802.82 404.00 737.00 404.00
C 700.36 404.00 663.24 405.00 627.00 405.00
C 609.62 406.68 590.48 407.84 572.00 407.00 C 553.52 406.16 533.37 408.05 515.00 407.00 C 496.63 405.95 476.57 409.86 460.00 405.00
C 452.67 403.87 444.12 408.64 436.33 404.67 C 428.54 400.70 421.20 406.23 413.00 406.00 C 404.80 405.77 396.02 402.84 387.99 402.01 C 379.97 401.17 372.36 409.94 370.67 399.33 C 368.98 388.72 353.85 400.42 357.00 406.00
C 349.70 405.18 349.44 384.18 342.00 393.00
C 347.15 394.97 344.19 400.94 339.00 399.00
C 339.71 404.83 334.00 408.31 329.75 404.25 C 325.51 400.18 316.58 404.82 319.00 396.00
C 311.13 400.36 303.84 400.43 294.93 398.07 C 286.02 395.71 276.40 396.38 267.00 395.00 C 257.60 393.62 246.98 393.84 237.00 394.00 C 227.02 394.16 216.04 393.64 206.00 394.00 C 195.96 394.36 185.64 393.58 176.00 393.00 C 166.35 392.42 156.64 391.69 147.33 390.67 C 138.02 389.65 130.80 387.29 121.92 385.08 C 113.05 382.86 108.02 379.98 99.30 376.70 C 90.59 373.42 86.60 369.16 93.00 360.00
C 87.24 357.61 89.20 349.86 86.08 344.92 C 82.95 339.99 83.22 331.93 86.00 327.00
C 80.21 323.87 83.75 317.42 86.30 313.30 C 88.86 309.19 86.71 299.61 95.00 302.00 C 103.29 304.39 102.45 297.02 105.75 292.75 C 109.06 288.49 113.71 287.06 118.67 285.67 C 123.64 284.29 129.98 283.63 135.00 282.00
C 133.12 270.82 122.34 262.81 128.78 249.78 C 135.22 236.75 116.58 239.90 112.00 230.00
C 101.06 232.17 102.70 216.47 95.70 208.30 C 88.70 200.14 86.37 191.28 82.02 180.98 C 77.68 170.67 86.31 159.80 97.23 157.23 C 108.15 154.66 120.16 151.55 132.00 151.00 C 143.84 150.45 155.04 147.42 167.00 146.00 C 178.96 144.58 191.25 142.46 203.67 141.67 C 216.09 140.88 228.32 138.45 241.07 138.07 C 253.83 137.69 267.27 137.04 280.00 136.00 C 292.73 134.96 306.31 135.39 319.00 134.00
C 325.05 132.92 332.27 133.00 339.00 133.00
C 366.50 130.34 396.34 130.45 425.00 131.00 C 453.66 131.55 484.17 129.31 512.00 132.00
C 562.07 132.00 612.17 132.00 662.00 132.00
C 712.66 132.00 762.47 124.00 813.00 124.00
C 833.60 121.06 857.14 122.40 878.00 123.00
C 918.42 120.25 957.05 114.62 994.08 132.92 C 1031.10 151.22 1027.00 194.70 1027.00 231.00 Z"/>
</g>
<g fill="None" fill-opacity="0.0" stroke="#776E9C" stroke-opacity="1.00" stroke-width="0.3"><path d="
M 878.00 123.00 
C 856.34 124.47 834.74 124.00 813.00 124.00
C 762.47 124.00 712.66 132.00 662.00 132.00
C 638.97 136.44 613.45 133.28 589.00 134.00 C 564.55 134.72 538.53 133.63 514.00 134.00 C 489.47 134.37 464.46 134.27 441.00 132.00
C 413.59 132.00 386.07 133.00 359.00 133.00
C 346.41 134.22 332.23 133.10 319.00 134.00
C 306.31 135.39 292.73 134.96 280.00 136.00 C 267.27 137.04 253.83 137.69 241.07 138.07 C 228.32 138.45 216.09 140.88 203.67 141.67 C 191.25 142.46 178.96 144.58 167.00 146.00 C 155.04 147.42 143.84 150.45 132.00 151.00 C 120.16 151.55 108.15 154.66 97.23 157.23 C 86.31 159.80 77.68 170.67 82.02 180.98 C 86.37 191.28 88.70 200.14 95.70 208.30 C 102.70 216.47 101.06 232.17 112.00 230.00
C 116.58 239.90 135.22 236.75 128.78 249.78 C 122.34 262.81 133.12 270.82 135.00 282.00
C 129.98 283.63 123.64 284.29 118.67 285.67 C 113.71 287.06 109.06 288.49 105.75 292.75 C 102.45 297.02 103.29 304.39 95.00 302.00 C 86.71 299.61 88.86 309.19 86.30 313.30 C 83.75 317.42 80.21 323.87 86.00 327.00
C 83.22 331.93 82.95 339.99 86.08 344.92 C 89.20 349.86 87.24 357.61 93.00 360.00
C 86.60 369.16 90.59 373.42 99.30 376.70 C 108.02 379.98 113.05 382.86 121.92 385.08 C 130.80 387.29 138.02 389.65 147.33 390.67 C 156.64 391.69 166.35 392.42 176.00 393.00 C 185.64 393.58 195.96 394.36 206.00 394.00 C 216.04 393.64 227.02 394.16 237.00 394.00 C 246.98 393.84 257.60 393.62 267.00 395.00 C 276.40 396.38 286.02 395.71 294.93 398.07 C 303.84 400.43 311.13 400.36 319.00 396.00
C 316.58 404.82 325.51 400.18 329.75 404.25 C 334.00 408.31 339.71 404.83 339.00 399.00
C 344.19 400.94 347.15 394.97 342.00 393.00
C 349.44 384.18 349.70 405.18 357.00 406.00
C 353.85 400.42 368.98 388.72 370.67 399.33 C 372.36 409.94 379.97 401.17 387.99 402.01 C 396.02 402.84 404.80 405.77 413.00 406.00 C 421.20 406.23 428.54 400.70 436.33 404.67 C 444.12 408.64 452.67 403.87 460.00 405.00
C 472.46 406.93 486.11 406.00 499.00 406.00
C 511.96 404.75 525.98 403.56 540.00 404.00 C 554.02 404.44 569.37 403.43 582.00 406.00
C 587.67 406.00 593.33 406.00 599.00 406.00
C 620.37 401.88 644.25 403.24 667.00 403.00 C 689.75 402.76 715.02 401.87 737.00 404.00
C 802.82 404.00 868.76 404.10 933.00 399.00
C 936.49 398.14 939.88 397.25 944.00 397.00
C 959.96 396.05 975.43 391.81 991.00 390.00 C 1006.56 388.18 1012.91 376.58 1017.22 362.22 C 1021.53 347.87 1021.00 328.87 1021.00 313.00
C 1021.00 309.90 1021.77 306.36 1022.00 304.00
C 1022.00 300.68 1021.87 297.32 1022.00 294.00
C 1022.12 290.92 1023.60 288.95 1024.00 287.00
C 1024.46 278.54 1025.68 270.39 1026.00 262.00
C 1026.39 251.70 1026.07 240.56 1027.00 231.00
C 1027.00 194.70 1031.10 151.22 994.08 132.92 C 957.05 114.62 918.42 120.25 878.00 123.00
M 459.00 183.00 
C 463.83 184.55 463.97 191.32 469.25 193.75 C 474.52 196.18 470.33 204.10 466.25 206.25 C 462.17 208.40 458.97 217.45 453.78 214.22 C 448.58 210.99 448.51 207.15 443.25 203.75 C 437.99 200.35 440.71 194.24 445.25 191.25 C 449.78 188.26 452.42 180.89 459.00 183.00
M 596.00 257.00 
C 602.87 257.11 613.83 257.21 615.92 248.92 C 618.00 240.63 617.36 234.33 624.25 228.25 C 631.13 222.17 634.64 225.27 640.25 231.75 C 645.86 238.23 642.65 247.65 639.68 254.68 C 636.71 261.71 627.75 264.50 623.00 267.00
C 628.97 270.76 635.19 274.55 638.77 281.23 C 642.35 287.91 647.33 293.68 647.93 302.07 C 648.52 310.46 629.18 305.99 623.00 307.00
C 619.08 293.92 612.89 274.26 596.00 274.00
C 594.74 280.87 598.03 298.79 595.22 304.22 C 592.42 309.65 571.64 310.72 571.01 302.99 C 570.38 295.27 571.41 281.08 571.00 272.00 C 570.59 262.92 571.47 250.59 571.00 241.00 C 570.53 231.41 571.84 218.48 571.00 209.00 C 570.16 199.52 570.79 190.54 578.25 185.25 C 585.71 179.95 593.63 185.93 595.78 194.22 C 597.93 202.52 595.08 215.59 596.00 225.00 C 596.92 234.41 595.31 247.28 596.00 257.00
M 783.00 183.00 
C 786.73 183.87 798.05 195.66 796.67 199.67 C 795.28 203.69 783.80 215.80 779.33 213.67 C 774.86 211.54 763.92 202.27 765.34 197.32 C 766.75 192.37 777.73 181.78 783.00 183.00
M 869.00 224.00 
C 869.83 213.53 866.68 199.59 871.75 190.75 C 876.83 181.92 887.40 180.91 892.25 190.75 C 897.09 200.60 892.70 213.32 894.00 225.00 C 895.30 236.68 892.84 248.31 894.00 261.00 C 895.16 273.69 892.21 282.84 894.00 297.00 C 895.79 311.16 878.69 307.17 872.08 301.92 C 865.48 296.67 856.85 311.77 847.00 309.00 C 837.15 306.23 827.91 307.96 821.25 298.75 C 814.59 289.54 812.38 283.53 811.22 272.78 C 810.06 262.02 812.03 251.57 816.77 242.77 C 821.51 233.97 827.34 229.65 836.69 226.69 C 846.05 223.74 858.85 221.85 869.00 224.00
M 308.00 339.00 
C 300.99 343.30 286.51 345.53 279.31 340.69 C 272.11 335.86 262.90 333.33 260.23 323.77 C 257.56 314.21 254.83 306.14 244.31 304.69 C 233.79 303.25 230.52 295.73 224.08 288.92 C 217.64 282.10 215.54 272.67 215.00 263.00 C 214.46 253.33 214.80 238.20 216.98 228.98 C 219.15 219.75 222.33 212.92 229.25 206.25 C 236.17 199.57 242.92 195.34 252.02 193.02 C 261.13 190.71 274.87 190.21 284.00 192.00 C 293.13 193.79 301.55 197.52 308.23 203.77 C 314.91 210.02 319.39 216.38 321.97 225.03 C 324.56 233.68 325.04 248.16 324.02 257.02 C 323.01 265.89 322.02 277.91 316.69 284.70 C 311.37 291.48 307.52 300.64 298.30 302.31 C 289.09 303.97 280.37 314.48 292.08 318.92 C 303.79 323.37 308.39 325.87 308.00 339.00
M 731.00 243.00 
C 730.22 243.75 729.54 245.10 729.00 246.00
C 730.99 246.73 734.15 246.54 735.00 249.00
C 747.36 254.03 754.55 269.83 750.07 282.07 C 745.59 294.31 736.41 305.05 722.93 305.93 C 709.44 306.81 687.25 310.53 674.00 306.00
C 667.80 303.88 665.35 298.37 665.00 292.00
C 664.21 277.49 664.07 257.01 665.00 243.00 C 665.93 228.99 660.12 208.53 668.77 197.77 C 677.43 187.01 700.66 194.35 713.00 193.00 C 725.34 191.65 739.08 198.40 744.32 210.68 C 749.57 222.96 743.02 236.83 731.00 243.00
M 410.00 221.00 
C 417.17 221.40 422.16 231.67 422.00 239.00 C 421.84 246.34 421.59 260.42 422.00 269.00 C 422.41 277.58 420.75 290.11 422.00 299.00 C 423.25 307.89 407.10 311.98 401.25 304.75 C 395.40 297.52 391.56 305.37 383.78 307.78 C 375.99 310.18 364.68 310.03 357.78 306.22 C 350.87 302.42 346.19 297.69 344.25 289.75 C 342.30 281.82 342.37 268.61 343.00 260.00 C 343.63 251.39 340.55 238.64 343.93 230.93 C 347.31 223.21 355.16 219.61 361.75 225.25 C 368.35 230.88 368.68 239.71 368.00 249.00 C 367.32 258.29 367.88 270.22 368.98 279.02 C 370.07 287.82 379.24 291.81 387.01 289.01 C 394.78 286.20 397.19 276.53 397.00 269.00 C 396.80 261.47 397.80 245.96 397.00 239.00 C 396.20 232.04 402.50 220.58 410.00 221.00
M 529.00 289.00 
C 532.09 289.32 535.92 289.34 539.00 289.00
C 542.37 288.21 550.34 283.50 552.75 288.25 C 555.16 293.00 556.86 298.55 557.00 304.00
C 545.71 309.14 530.18 310.15 517.99 308.01 C 505.81 305.86 496.85 299.62 491.08 288.92 C 485.30 278.22 484.63 262.73 488.31 251.31 C 491.99 239.88 499.05 231.41 510.68 227.68 C 522.31 223.95 537.46 220.48 549.74 227.26 C 562.03 234.03 551.10 252.37 539.25 244.75 C 527.41 237.12 514.28 248.90 512.03 260.03 C 509.78 271.15 515.36 288.69 529.00 289.00
M 792.00 224.00 
C 797.83 226.37 794.44 237.58 795.00 243.00 C 795.56 248.42 795.07 259.11 795.00 265.00 C 794.93 270.89 795.68 282.73 795.00 288.00 C 794.32 293.27 797.85 305.68 792.70 307.70 C 787.54 309.71 775.51 308.95 770.00 308.00 C 764.49 307.05 767.49 293.93 767.00 289.00 C 766.51 284.07 767.05 272.69 767.00 267.00 C 766.95 261.31 766.70 249.23 767.00 244.00 C 767.30 238.77 764.93 226.67 769.75 224.75 C 774.58 222.84 787.29 222.08 792.00 224.00
M 467.00 225.00 
C 471.92 227.54 468.28 238.78 469.00 244.00 C 469.72 249.22 468.94 260.39 469.00 266.00 C 469.06 271.61 469.66 282.07 469.00 287.00 C 468.34 291.93 471.74 304.91 466.75 306.75 C 461.76 308.59 450.31 308.14 445.33 306.67 C 440.35 305.20 443.63 292.96 443.00 288.00 C 442.37 283.04 443.18 271.51 443.00 266.00 C 442.82 260.49 442.79 249.95 443.00 245.00 C 443.21 240.05 441.12 227.48 445.75 225.75 C 450.39 224.03 462.84 222.85 467.00 225.00 Z"/>
</g>
<g fill="None" fill-opacity="0.0" stroke="#C9C8CD" stroke-opacity="1.00" stroke-width="0.3"><path d="
M 813.00 124.00 
C 834.74 124.00 856.34 124.47 878.00 123.00
C 857.14 122.40 833.60 121.06 813.00 124.00 Z"/>
</g>
<g fill="None" fill-opacity="0.0" stroke="#CBCBCF" stroke-opacity="1.00" stroke-width="0.3"><path d="
M 339.00 133.00 
C 345.67 133.00 352.33 133.00 359.00 133.00
C 386.07 133.00 413.59 132.00 441.00 132.00
C 464.67 132.00 488.33 132.00 512.00 132.00
C 484.17 129.31 453.66 131.55 425.00 131.00 C 396.34 130.45 366.50 130.34 339.00 133.00 Z"/>
</g>
<g fill="None" fill-opacity="0.0" stroke="#9791AF" stroke-opacity="1.00" stroke-width="0.3"><path d="
M 662.00 132.00 
C 612.17 132.00 562.07 132.00 512.00 132.00
C 488.33 132.00 464.67 132.00 441.00 132.00
C 464.46 134.27 489.47 134.37 514.00 134.00 C 538.53 133.63 564.55 134.72 589.00 134.00 C 613.45 133.28 638.97 136.44 662.00 132.00 Z"/>
</g>
<g fill="None" fill-opacity="0.0" stroke="#9F9AB4" stroke-opacity="1.00" stroke-width="0.3"><path d="
M 319.00 134.00 
C 332.23 133.10 346.41 134.22 359.00 133.00
C 352.33 133.00 345.67 133.00 339.00 133.00
C 332.27 133.00 325.05 132.92 319.00 134.00 Z"/>
</g>
<g fill="None" fill-opacity="0.0" stroke="#DFE3DB" stroke-opacity="1.00" stroke-width="0.3"><path d="
M 459.00 183.00 
C 452.42 180.89 449.78 188.26 445.25 191.25 C 440.71 194.24 437.99 200.35 443.25 203.75 C 448.51 207.15 448.58 210.99 453.78 214.22 C 458.97 217.45 462.17 208.40 466.25 206.25 C 470.33 204.10 474.52 196.18 469.25 193.75 C 463.97 191.32 463.83 184.55 459.00 183.00 Z"/>
</g>
<g fill="None" fill-opacity="0.0" stroke="#E2E5DD" stroke-opacity="1.00" stroke-width="0.3"><path d="
M 596.00 257.00 
C 595.31 247.28 596.92 234.41 596.00 225.00 C 595.08 215.59 597.93 202.52 595.78 194.22 C 593.63 185.93 585.71 179.95 578.25 185.25 C 570.79 190.54 570.16 199.52 571.00 209.00 C 571.84 218.48 570.53 231.41 571.00 241.00 C 571.47 250.59 570.59 262.92 571.00 272.00 C 571.41 281.08 570.38 295.27 571.01 302.99 C 571.64 310.72 592.42 309.65 595.22 304.22 C 598.03 298.79 594.74 280.87 596.00 274.00
C 612.89 274.26 619.08 293.92 623.00 307.00
C 629.18 305.99 648.52 310.46 647.93 302.07 C 647.33 293.68 642.35 287.91 638.77 281.23 C 635.19 274.55 628.97 270.76 623.00 267.00
C 627.75 264.50 636.71 261.71 639.68 254.68 C 642.65 247.65 645.86 238.23 640.25 231.75 C 634.64 225.27 631.13 222.17 624.25 228.25 C 617.36 234.33 618.00 240.63 615.92 248.92 C 613.83 257.21 602.87 257.11 596.00 257.00 Z"/>
</g>
<g fill="None" fill-opacity="0.0" stroke="#E0E4DC" stroke-opacity="1.00" stroke-width="0.3"><path d="
M 783.00 183.00 
C 777.73 181.78 766.75 192.37 765.34 197.32 C 763.92 202.27 774.86 211.54 779.33 213.67 C 783.80 215.80 795.28 203.69 796.67 199.67 C 798.05 195.66 786.73 183.87 783.00 183.00 Z"/>
</g>
<g fill="None" fill-opacity="0.0" stroke="#E2E5DD" stroke-opacity="1.00" stroke-width="0.3"><path d="
M 869.00 224.00 
C 858.85 221.85 846.05 223.74 836.69 226.69 C 827.34 229.65 821.51 233.97 816.77 242.77 C 812.03 251.57 810.06 262.02 811.22 272.78 C 812.38 283.53 814.59 289.54 821.25 298.75 C 827.91 307.96 837.15 306.23 847.00 309.00 C 856.85 311.77 865.48 296.67 872.08 301.92 C 878.69 307.17 895.79 311.16 894.00 297.00 C 892.21 282.84 895.16 273.69 894.00 261.00 C 892.84 248.31 895.30 236.68 894.00 225.00 C 892.70 213.32 897.09 200.60 892.25 190.75 C 887.40 180.91 876.83 181.92 871.75 190.75 C 866.68 199.59 869.83 213.53 869.00 224.00
M 863.00 243.00 
C 873.91 245.26 868.28 266.43 869.00 276.00 C 869.72 285.57 853.73 293.32 845.26 286.74 C 836.78 280.17 835.40 267.79 837.99 256.99 C 840.58 246.19 852.05 240.73 863.00 243.00 Z"/>
</g>
<g fill="None" fill-opacity="0.0" stroke="#E2E6DD" stroke-opacity="1.00" stroke-width="0.3"><path d="
M 308.00 339.00 
C 308.39 325.87 303.79 323.37 292.08 318.92 C 280.37 314.48 289.09 303.97 298.30 302.31 C 307.52 300.64 311.37 291.48 316.69 284.70 C 322.02 277.91 323.01 265.89 324.02 257.02 C 325.04 248.16 324.56 233.68 321.97 225.03 C 319.39 216.38 314.91 210.02 308.23 203.77 C 301.55 197.52 293.13 193.79 284.00 192.00 C 274.87 190.21 261.13 190.71 252.02 193.02 C 242.92 195.34 236.17 199.57 229.25 206.25 C 222.33 212.92 219.15 219.75 216.98 228.98 C 214.80 238.20 214.46 253.33 215.00 263.00 C 215.54 272.67 217.64 282.10 224.08 288.92 C 230.52 295.73 233.79 303.25 244.31 304.69 C 254.83 306.14 257.56 314.21 260.23 323.77 C 262.90 333.33 272.11 335.86 279.31 340.69 C 286.51 345.53 300.99 343.30 308.00 339.00
M 296.00 237.00 
C 298.10 245.88 298.09 254.17 296.00 263.00
C 294.32 275.88 286.64 284.38 274.00 287.00
C 268.92 288.05 264.80 288.14 260.00 286.00
C 251.47 282.19 245.74 276.36 244.00 267.00
C 240.88 257.39 240.50 247.53 242.00 237.00
C 243.31 227.80 247.88 216.95 258.00 214.00
C 277.63 208.29 293.44 217.32 296.00 237.00 Z"/>
</g>
<g fill="None" fill-opacity="0.0" stroke="#E2E6DD" stroke-opacity="1.00" stroke-width="0.3"><path d="
M 665.00 292.00 
C 665.80 296.44 669.28 303.91 674.00 306.00
C 687.25 310.53 709.44 306.81 722.93 305.93 C 736.41 305.05 745.59 294.31 750.07 282.07 C 754.55 269.83 747.36 254.03 735.00 249.00
C 732.32 247.91 729.65 247.16 727.00 246.00
C 726.47 243.47 729.74 244.25 731.00 243.00
C 743.02 236.83 749.57 222.96 744.32 210.68 C 739.08 198.40 725.34 191.65 713.00 193.00 C 700.66 194.35 677.43 187.01 668.77 197.77 C 660.12 208.53 665.93 228.99 665.00 243.00 C 664.07 257.01 664.21 277.49 665.00 292.00
M 715.00 214.00 
C 717.73 216.11 718.57 217.56 719.00 221.00
C 721.25 239.15 708.53 233.82 699.25 243.25 C 689.97 252.68 704.93 257.33 715.23 260.77 C 725.53 264.21 726.54 280.54 715.00 286.00
C 710.42 288.17 700.89 289.62 695.00 288.00
C 686.11 285.55 689.64 262.59 690.00 254.00 C 690.36 245.41 686.61 223.08 692.00 216.00
C 692.43 215.44 692.85 214.69 693.00 214.00
C 694.31 208.17 710.80 210.75 715.00 214.00 Z"/>
</g>
<g fill="None" fill-opacity="0.0" stroke="#C2C1C9" stroke-opacity="1.00" stroke-width="0.3"><path d="
M 693.00 214.00 
C 693.85 213.18 694.91 213.17 696.00 213.00
C 699.31 211.88 706.88 210.69 710.00 213.00
C 710.50 213.00 711.00 213.00 711.00 213.00
C 712.11 213.15 714.00 213.51 715.00 214.00
C 710.80 210.75 694.31 208.17 693.00 214.00 Z"/>
</g>
<g fill="None" fill-opacity="0.0" stroke="#9A94B1" stroke-opacity="1.00" stroke-width="0.3"><path d="
M 696.00 213.00 
C 700.43 212.32 705.51 213.00 710.00 213.00
C 706.88 210.69 699.31 211.88 696.00 213.00 Z"/>
</g>
<g fill="None" fill-opacity="0.0" stroke="#786F9C" stroke-opacity="1.00" stroke-width="0.3"><path d="
M 258.00 214.00 
C 257.60 214.24 256.41 215.64 256.00 216.00
C 252.48 219.10 246.92 223.76 245.00 228.00
C 244.52 229.50 244.31 231.40 244.00 233.00
C 241.99 243.38 242.07 256.61 244.00 267.00
C 245.74 276.36 251.47 282.19 260.00 286.00
C 264.13 287.17 269.54 287.41 274.00 287.00
C 286.64 284.38 294.32 275.88 296.00 263.00
C 297.13 254.34 297.13 245.67 296.00 237.00
C 293.44 217.32 277.63 208.29 258.00 214.00 Z"/>
</g>
<g fill="None" fill-opacity="0.0" stroke="#79709D" stroke-opacity="1.00" stroke-width="0.3"><path d="
M 693.00 214.00 
C 692.85 214.69 692.43 215.44 692.00 216.00
C 692.13 225.36 692.12 235.30 692.00 246.00 C 691.88 256.70 692.38 266.80 692.00 278.00 C 691.62 289.20 706.65 288.61 715.00 286.00
C 726.54 280.54 725.53 264.21 715.23 260.77 C 704.93 257.33 689.97 252.68 699.25 243.25 C 708.53 233.82 721.25 239.15 719.00 221.00
C 717.98 216.38 714.04 215.61 711.00 213.00
C 711.00 213.00 710.50 213.00 710.00 213.00
C 705.51 213.00 700.43 212.32 696.00 213.00
C 694.91 213.17 693.85 213.18 693.00 214.00 Z"/>
</g>
<g fill="None" fill-opacity="0.0" stroke="#9891B0" stroke-opacity="1.00" stroke-width="0.3"><path d="
M 719.00 221.00 
C 718.57 217.56 717.73 216.11 715.00 214.00
C 714.00 213.51 712.11 213.15 711.00 213.00
C 714.04 215.61 717.98 216.38 719.00 221.00 Z"/>
</g>
<g fill="None" fill-opacity="0.0" stroke="#BFBEC8" stroke-opacity="1.00" stroke-width="0.3"><path d="
M 242.00 237.00 
C 242.29 236.00 243.68 233.97 244.00 233.00
C 244.31 231.40 244.52 229.50 245.00 228.00
C 246.76 222.54 251.50 218.74 256.00 216.00
C 256.41 215.64 257.60 214.24 258.00 214.00
C 247.88 216.95 243.31 227.80 242.00 237.00 Z"/>
</g>
<g fill="None" fill-opacity="0.0" stroke="#958FAE" stroke-opacity="1.00" stroke-width="0.3"><path d="
M 245.00 228.00 
C 246.92 223.76 252.48 219.10 256.00 216.00
C 251.50 218.74 246.76 222.54 245.00 228.00 Z"/>
</g>
<g fill="None" fill-opacity="0.0" stroke="#C8C8CD" stroke-opacity="1.00" stroke-width="0.3"><path d="
M 695.00 288.00 
C 687.96 285.14 691.64 273.70 691.00 267.00 C 690.36 260.30 691.19 248.53 691.00 241.00 C 690.81 233.47 690.42 223.33 692.00 216.00
C 686.61 223.08 690.36 245.41 690.00 254.00 C 689.64 262.59 686.11 285.55 695.00 288.00 Z"/>
</g>
<g fill="None" fill-opacity="0.0" stroke="#8E86A9" stroke-opacity="1.00" stroke-width="0.3"><path d="
M 695.00 288.00 
C 700.89 289.62 710.42 288.17 715.00 286.00
C 706.65 288.61 691.62 289.20 692.00 278.00 C 692.38 266.80 691.88 256.70 692.00 246.00 C 692.12 235.30 692.13 225.36 692.00 216.00
C 690.42 223.33 690.81 233.47 691.00 241.00 C 691.19 248.53 690.36 260.30 691.00 267.00 C 691.64 273.70 687.96 285.14 695.00 288.00 Z"/>
</g>
<g fill="None" fill-opacity="0.0" stroke="#E2E6DD" stroke-opacity="1.00" stroke-width="0.3"><path d="
M 410.00 221.00 
C 402.50 220.58 396.20 232.04 397.00 239.00 C 397.80 245.96 396.80 261.47 397.00 269.00 C 397.19 276.53 394.78 286.20 387.01 289.01 C 379.24 291.81 370.07 287.82 368.98 279.02 C 367.88 270.22 367.32 258.29 368.00 249.00 C 368.68 239.71 368.35 230.88 361.75 225.25 C 355.16 219.61 347.31 223.21 343.93 230.93 C 340.55 238.64 343.63 251.39 343.00 260.00 C 342.37 268.61 342.30 281.82 344.25 289.75 C 346.19 297.69 350.87 302.42 357.78 306.22 C 364.68 310.03 375.99 310.18 383.78 307.78 C 391.56 305.37 395.40 297.52 401.25 304.75 C 407.10 311.98 423.25 307.89 422.00 299.00 C 420.75 290.11 422.41 277.58 422.00 269.00 C 421.59 260.42 421.84 246.34 422.00 239.00 C 422.16 231.67 417.17 221.40 410.00 221.00 Z"/>
</g>
<g fill="None" fill-opacity="0.0" stroke="#E1E5DC" stroke-opacity="1.00" stroke-width="0.3"><path d="
M 539.00 289.00 
C 535.46 289.82 532.48 289.77 529.00 289.00
C 515.36 288.69 509.78 271.15 512.03 260.03 C 514.28 248.90 527.41 237.12 539.25 244.75 C 551.10 252.37 562.03 234.03 549.74 227.26 C 537.46 220.48 522.31 223.95 510.68 227.68 C 499.05 231.41 491.99 239.88 488.31 251.31 C 484.63 262.73 485.30 278.22 491.08 288.92 C 496.85 299.62 505.81 305.86 517.99 308.01 C 530.18 310.15 545.71 309.14 557.00 304.00
C 556.86 298.55 555.16 293.00 552.75 288.25 C 550.34 283.50 542.37 288.21 539.00 289.00 Z"/>
</g>
<g fill="None" fill-opacity="0.0" stroke="#9993B0" stroke-opacity="1.00" stroke-width="0.3"><path d="
M 792.00 224.00 
C 787.29 222.08 774.58 222.84 769.75 224.75 C 764.93 226.67 767.30 238.77 767.00 244.00 C 766.70 249.23 766.95 261.31 767.00 267.00 C 767.05 272.69 766.51 284.07 767.00 289.00 C 767.49 293.93 764.49 307.05 770.00 308.00 C 775.51 308.95 787.54 309.71 792.70 307.70 C 797.85 305.68 794.32 293.27 795.00 288.00 C 795.68 282.73 794.93 270.89 795.00 265.00 C 795.07 259.11 795.56 248.42 795.00 243.00 C 794.44 237.58 797.83 226.37 792.00 224.00
M 769.00 305.00 
C 765.06 299.54 768.63 287.14 768.00 280.00 C 767.37 272.86 767.22 261.20 768.00 254.00 C 768.78 246.80 764.99 233.55 769.00 228.00
C 772.67 222.92 794.69 222.86 793.00 233.00 C 791.31 243.14 792.93 255.53 793.00 266.00 C 793.07 276.47 791.12 288.55 793.00 299.00 C 794.88 309.45 773.09 310.67 769.00 305.00 Z"/>
</g>
<g fill="None" fill-opacity="0.0" stroke="#E0E4DC" stroke-opacity="1.00" stroke-width="0.3"><path d="
M 467.00 225.00 
C 462.84 222.85 450.39 224.03 445.75 225.75 C 441.12 227.48 443.21 240.05 443.00 245.00 C 442.79 249.95 442.82 260.49 443.00 266.00 C 443.18 271.51 442.37 283.04 443.00 288.00 C 443.63 292.96 440.35 305.20 445.33 306.67 C 450.31 308.14 461.76 308.59 466.75 306.75 C 471.74 304.91 468.34 291.93 469.00 287.00 C 469.66 282.07 469.06 271.61 469.00 266.00 C 468.94 260.39 469.72 249.22 469.00 244.00 C 468.28 238.78 471.92 227.54 467.00 225.00 Z"/>
</g>
<g fill="None" fill-opacity="0.0" stroke="#E3E7DE" stroke-opacity="1.00" stroke-width="0.3"><path d="
M 769.00 228.00 
C 765.91 234.24 769.73 245.78 769.00 253.00 C 768.27 260.22 768.09 271.73 769.00 279.00 C 769.91 286.27 765.84 298.61 769.00 305.00
C 773.09 310.67 794.88 309.45 793.00 299.00 C 791.12 288.55 793.07 276.47 793.00 266.00 C 792.93 255.53 791.31 243.14 793.00 233.00 C 794.69 222.86 772.67 222.92 769.00 228.00 Z"/>
</g>
<g fill="None" fill-opacity="0.0" stroke="#B3B1BF" stroke-opacity="1.00" stroke-width="0.3"><path d="
M 769.00 305.00 
C 765.84 298.61 769.91 286.27 769.00 279.00 C 768.09 271.73 768.27 260.22 769.00 253.00 C 769.73 245.78 765.91 234.24 769.00 228.00
C 764.99 233.55 768.78 246.80 768.00 254.00 C 767.22 261.20 767.37 272.86 768.00 280.00 C 768.63 287.14 765.06 299.54 769.00 305.00 Z"/>
</g>
<g fill="None" fill-opacity="0.0" stroke="#ACA8BB" stroke-opacity="1.00" stroke-width="0.3"><path d="
M 1026.00 262.00 
C 1027.36 252.50 1027.00 241.28 1027.00 231.00
C 1026.07 240.56 1026.39 251.70 1026.00 262.00 Z"/>
</g>
<g fill="None" fill-opacity="0.0" stroke="#9B95B2" stroke-opacity="1.00" stroke-width="0.3"><path d="
M 242.00 237.00 
C 240.50 247.53 240.88 257.39 244.00 267.00
C 242.07 256.61 241.99 243.38 244.00 233.00
C 243.68 233.97 242.29 236.00 242.00 237.00 Z"/>
</g>
<g fill="None" fill-opacity="0.0" stroke="#AFACBE" stroke-opacity="1.00" stroke-width="0.3"><path d="
M 296.00 263.00 
C 298.09 254.17 298.10 245.88 296.00 237.00
C 297.13 245.67 297.13 254.34 296.00 263.00 Z"/>
</g>
<g fill="None" fill-opacity="0.0" stroke="#AAA6BA" stroke-opacity="1.00" stroke-width="0.3"><path d="
M 735.00 249.00 
C 734.15 246.54 730.99 246.73 729.00 246.00
C 729.54 245.10 730.22 243.75 731.00 243.00
C 729.74 244.25 726.47 243.47 727.00 246.00
C 729.65 247.16 732.32 247.91 735.00 249.00 Z"/>
</g>
<g fill="None" fill-opacity="0.0" stroke="#7A719D" stroke-opacity="1.00" stroke-width="0.3"><path d="
M 863.00 243.00 
C 852.05 240.73 840.58 246.19 837.99 256.99 C 835.40 267.79 836.78 280.17 845.26 286.74 C 853.73 293.32 869.72 285.57 869.00 276.00 C 868.28 266.43 873.91 245.26 863.00 243.00 Z"/>
</g>
<g fill="None" fill-opacity="0.0" stroke="#ADA9BC" stroke-opacity="1.00" stroke-width="0.3"><path d="
M 274.00 287.00 
C 269.54 287.41 264.13 287.17 260.00 286.00
C 264.80 288.14 268.92 288.05 274.00 287.00 Z"/>
</g>
<g fill="None" fill-opacity="0.0" stroke="#ADA9BC" stroke-opacity="1.00" stroke-width="0.3"><path d="
M 1022.00 294.00 
C 1022.41 291.87 1023.84 289.96 1024.00 287.00
C 1023.60 288.95 1022.12 290.92 1022.00 294.00 Z"/>
</g>
<g fill="None" fill-opacity="0.0" stroke="#A9A5BB" stroke-opacity="1.00" stroke-width="0.3"><path d="
M 539.00 289.00 
C 535.92 289.34 532.09 289.32 529.00 289.00
C 532.48 289.77 535.46 289.82 539.00 289.00 Z"/>
</g>
<g fill="None" fill-opacity="0.0" stroke="#ABA7BB" stroke-opacity="1.00" stroke-width="0.3"><path d="
M 674.00 306.00 
C 669.28 303.91 665.80 296.44 665.00 292.00
C 665.35 298.37 667.80 303.88 674.00 306.00 Z"/>
</g>
<g fill="None" fill-opacity="0.0" stroke="#B0ACBE" stroke-opacity="1.00" stroke-width="0.3"><path d="
M 1021.00 313.00 
C 1021.23 310.64 1022.00 307.10 1022.00 304.00
C 1021.77 306.36 1021.00 309.90 1021.00 313.00 Z"/>
</g>
<g fill="None" fill-opacity="0.0" stroke="#AEAABD" stroke-opacity="1.00" stroke-width="0.3"><path d="
M 933.00 399.00 
C 937.26 398.66 940.80 397.74 944.00 397.00
C 939.88 397.25 936.49 398.14 933.00 399.00 Z"/>
</g>
<g fill="None" fill-opacity="0.0" stroke="#9791AF" stroke-opacity="1.00" stroke-width="0.3"><path d="
M 599.00 406.00 
C 608.55 406.00 617.39 405.00 627.00 405.00
C 663.24 405.00 700.36 404.00 737.00 404.00
C 715.02 401.87 689.75 402.76 667.00 403.00 C 644.25 403.24 620.37 401.88 599.00 406.00 Z"/>
</g>
<g fill="None" fill-opacity="0.0" stroke="#948DAD" stroke-opacity="1.00" stroke-width="0.3"><path d="
M 499.00 406.00 
C 526.92 406.00 554.43 406.00 582.00 406.00
C 569.37 403.43 554.02 404.44 540.00 404.00 C 525.98 403.56 511.96 404.75 499.00 406.00 Z"/>
</g>
<g fill="None" fill-opacity="0.0" stroke="#CCCCCF" stroke-opacity="1.00" stroke-width="0.3"><path d="
M 627.00 405.00 
C 617.39 405.00 608.55 406.00 599.00 406.00
C 593.33 406.00 587.67 406.00 582.00 406.00
C 554.43 406.00 526.92 406.00 499.00 406.00
C 486.11 406.00 472.46 406.93 460.00 405.00
C 476.57 409.86 496.63 405.95 515.00 407.00 C 533.37 408.05 553.52 406.16 572.00 407.00 C 590.48 407.84 609.62 406.68 627.00 405.00 Z"/>
</g>
<g fill="#E5E8DE" fill-opacity="1.00" stroke="None">
<path d="
M 0.00 510.00 
L 1098.00 510.00
L 1098.00 0.00
L 0.00 0.00
L 0.00 510.00
M 1027.00 231.00 
C 1027.00 241.28 1027.36 252.50 1026.00 262.00
C 1025.68 270.39 1024.46 278.54 1024.00 287.00
C 1023.84 289.96 1022.41 291.87 1022.00 294.00
C 1021.87 297.32 1022.00 300.68 1022.00 304.00
C 1022.00 307.10 1021.23 310.64 1021.00 313.00
C 1021.00 328.87 1021.53 347.87 1017.22 362.22 C 1012.91 376.58 1006.56 388.18 991.00 390.00 C 975.43 391.81 959.96 396.05 944.00 397.00
C 940.80 397.74 937.26 398.66 933.00 399.00
C 868.76 404.10 802.82 404.00 737.00 404.00
C 700.36 404.00 663.24 405.00 627.00 405.00
C 609.62 406.68 590.48 407.84 572.00 407.00 C 553.52 406.16 533.37 408.05 515.00 407.00 C 496.63 405.95 476.57 409.86 460.00 405.00
C 452.67 403.87 444.12 408.64 436.33 404.67 C 428.54 400.70 421.20 406.23 413.00 406.00 C 404.80 405.77 396.02 402.84 387.99 402.01 C 379.97 401.17 372.36 409.94 370.67 399.33 C 368.98 388.72 353.85 400.42 357.00 406.00
C 349.70 405.18 349.44 384.18 342.00 393.00
C 347.15 394.97 344.19 400.94 339.00 399.00
C 339.71 404.83 334.00 408.31 329.75 404.25 C 325.51 400.18 316.58 404.82 319.00 396.00
C 311.13 400.36 303.84 400.43 294.93 398.07 C 286.02 395.71 276.40 396.38 267.00 395.00 C 257.60 393.62 246.98 393.84 237.00 394.00 C 227.02 394.16 216.04 393.64 206.00 394.00 C 195.96 394.36 185.64 393.58 176.00 393.00 C 166.35 392.42 156.64 391.69 147.33 390.67 C 138.02 389.65 130.80 387.29 121.92 385.08 C 113.05 382.86 108.02 379.98 99.30 376.70 C 90.59 373.42 86.60 369.16 93.00 360.00
C 87.24 357.61 89.20 349.86 86.08 344.92 C 82.95 339.99 83.22 331.93 86.00 327.00
C 80.21 323.87 83.75 317.42 86.30 313.30 C 88.86 309.19 86.71 299.61 95.00 302.00 C 103.29 304.39 102.45 297.02 105.75 292.75 C 109.06 288.49 113.71 287.06 118.67 285.67 C 123.64 284.29 129.98 283.63 135.00 282.00
C 133.12 270.82 122.34 262.81 128.78 249.78 C 135.22 236.75 116.58 239.90 112.00 230.00
C 101.06 232.17 102.70 216.47 95.70 208.30 C 88.70 200.14 86.37 191.28 82.02 180.98 C 77.68 170.67 86.31 159.80 97.23 157.23 C 108.15 154.66 120.16 151.55 132.00 151.00 C 143.84 150.45 155.04 147.42 167.00 146.00 C 178.96 144.58 191.25 142.46 203.67 141.67 C 216.09 140.88 228.32 138.45 241.07 138.07 C 253.83 137.69 267.27 137.04 280.00 136.00 C 292.73 134.96 306.31 135.39 319.00 134.00
C 325.05 132.92 332.27 133.00 339.00 133.00
C 366.50 130.34 396.34 130.45 425.00 131.00 C 453.66 131.55 484.17 129.31 512.00 132.00
C 562.07 132.00 612.17 132.00 662.00 132.00
C 712.66 132.00 762.47 124.00 813.00 124.00
C 833.60 121.06 857.14 122.40 878.00 123.00
C 918.42 120.25 957.05 114.62 994.08 132.92 C 1031.10 151.22 1027.00 194.70 1027.00 231.00 Z"/>
</g>
<g fill="#776E9C" fill-opacity="1.00" stroke="None">
<path d="
M 878.00 123.00 
C 856.34 124.47 834.74 124.00 813.00 124.00
C 762.47 124.00 712.66 132.00 662.00 132.00
C 638.97 136.44 613.45 133.28 589.00 134.00 C 564.55 134.72 538.53 133.63 514.00 134.00 C 489.47 134.37 464.46 134.27 441.00 132.00
C 413.59 132.00 386.07 133.00 359.00 133.00
C 346.41 134.22 332.23 133.10 319.00 134.00
C 306.31 135.39 292.73 134.96 280.00 136.00 C 267.27 137.04 253.83 137.69 241.07 138.07 C 228.32 138.45 216.09 140.88 203.67 141.67 C 191.25 142.46 178.96 144.58 167.00 146.00 C 155.04 147.42 143.84 150.45 132.00 151.00 C 120.16 151.55 108.15 154.66 97.23 157.23 C 86.31 159.80 77.68 170.67 82.02 180.98 C 86.37 191.28 88.70 200.14 95.70 208.30 C 102.70 216.47 101.06 232.17 112.00 230.00
C 116.58 239.90 135.22 236.75 128.78 249.78 C 122.34 262.81 133.12 270.82 135.00 282.00
C 129.98 283.63 123.64 284.29 118.67 285.67 C 113.71 287.06 109.06 288.49 105.75 292.75 C 102.45 297.02 103.29 304.39 95.00 302.00 C 86.71 299.61 88.86 309.19 86.30 313.30 C 83.75 317.42 80.21 323.87 86.00 327.00
C 83.22 331.93 82.95 339.99 86.08 344.92 C 89.20 349.86 87.24 357.61 93.00 360.00
C 86.60 369.16 90.59 373.42 99.30 376.70 C 108.02 379.98 113.05 382.86 121.92 385.08 C 130.80 387.29 138.02 389.65 147.33 390.67 C 156.64 391.69 166.35 392.42 176.00 393.00 C 185.64 393.58 195.96 394.36 206.00 394.00 C 216.04 393.64 227.02 394.16 237.00 394.00 C 246.98 393.84 257.60 393.62 267.00 395.00 C 276.40 396.38 286.02 395.71 294.93 398.07 C 303.84 400.43 311.13 400.36 319.00 396.00
C 316.58 404.82 325.51 400.18 329.75 404.25 C 334.00 408.31 339.71 404.83 339.00 399.00
C 344.19 400.94 347.15 394.97 342.00 393.00
C 349.44 384.18 349.70 405.18 357.00 406.00
C 353.85 400.42 368.98 388.72 370.67 399.33 C 372.36 409.94 379.97 401.17 387.99 402.01 C 396.02 402.84 404.80 405.77 413.00 406.00 C 421.20 406.23 428.54 400.70 436.33 404.67 C 444.12 408.64 452.67 403.87 460.00 405.00
C 472.46 406.93 486.11 406.00 499.00 406.00
C 511.96 404.75 525.98 403.56 540.00 404.00 C 554.02 404.44 569.37 403.43 582.00 406.00
C 587.67 406.00 593.33 406.00 599.00 406.00
C 620.37 401.88 644.25 403.24 667.00 403.00 C 689.75 402.76 715.02 401.87 737.00 404.00
C 802.82 404.00 868.76 404.10 933.00 399.00
C 936.49 398.14 939.88 397.25 944.00 397.00
C 959.96 396.05 975.43 391.81 991.00 390.00 C 1006.56 388.18 1012.91 376.58 1017.22 362.22 C 1021.53 347.87 1021.00 328.87 1021.00 313.00
C 1021.00 309.90 1021.77 306.36 1022.00 304.00
C 1022.00 300.68 1021.87 297.32 1022.00 294.00
C 1022.12 290.92 1023.60 288.95 1024.00 287.00
C 1024.46 278.54 1025.68 270.39 1026.00 262.00
C 1026.39 251.70 1026.07 240.56 1027.00 231.00
C 1027.00 194.70 1031.10 151.22 994.08 132.92 C 957.05 114.62 918.42 120.25 878.00 123.00
M 459.00 183.00 
C 463.83 184.55 463.97 191.32 469.25 193.75 C 474.52 196.18 470.33 204.10 466.25 206.25 C 462.17 208.40 458.97 217.45 453.78 214.22 C 448.58 210.99 448.51 207.15 443.25 203.75 C 437.99 200.35 440.71 194.24 445.25 191.25 C 449.78 188.26 452.42 180.89 459.00 183.00
M 596.00 257.00 
C 602.87 257.11 613.83 257.21 615.92 248.92 C 618.00 240.63 617.36 234.33 624.25 228.25 C 631.13 222.17 634.64 225.27 640.25 231.75 C 645.86 238.23 642.65 247.65 639.68 254.68 C 636.71 261.71 627.75 264.50 623.00 267.00
C 628.97 270.76 635.19 274.55 638.77 281.23 C 642.35 287.91 647.33 293.68 647.93 302.07 C 648.52 310.46 629.18 305.99 623.00 307.00
C 619.08 293.92 612.89 274.26 596.00 274.00
C 594.74 280.87 598.03 298.79 595.22 304.22 C 592.42 309.65 571.64 310.72 571.01 302.99 C 570.38 295.27 571.41 281.08 571.00 272.00 C 570.59 262.92 571.47 250.59 571.00 241.00 C 570.53 231.41 571.84 218.48 571.00 209.00 C 570.16 199.52 570.79 190.54 578.25 185.25 C 585.71 179.95 593.63 185.93 595.78 194.22 C 597.93 202.52 595.08 215.59 596.00 225.00 C 596.92 234.41 595.31 247.28 596.00 257.00
M 783.00 183.00 
C 786.73 183.87 798.05 195.66 796.67 199.67 C 795.28 203.69 783.80 215.80 779.33 213.67 C 774.86 211.54 763.92 202.27 765.34 197.32 C 766.75 192.37 777.73 181.78 783.00 183.00
M 869.00 224.00 
C 869.83 213.53 866.68 199.59 871.75 190.75 C 876.83 181.92 887.40 180.91 892.25 190.75 C 897.09 200.60 892.70 213.32 894.00 225.00 C 895.30 236.68 892.84 248.31 894.00 261.00 C 895.16 273.69 892.21 282.84 894.00 297.00 C 895.79 311.16 878.69 307.17 872.08 301.92 C 865.48 296.67 856.85 311.77 847.00 309.00 C 837.15 306.23 827.91 307.96 821.25 298.75 C 814.59 289.54 812.38 283.53 811.22 272.78 C 810.06 262.02 812.03 251.57 816.77 242.77 C 821.51 233.97 827.34 229.65 836.69 226.69 C 846.05 223.74 858.85 221.85 869.00 224.00
M 308.00 339.00 
C 300.99 343.30 286.51 345.53 279.31 340.69 C 272.11 335.86 262.90 333.33 260.23 323.77 C 257.56 314.21 254.83 306.14 244.31 304.69 C 233.79 303.25 230.52 295.73 224.08 288.92 C 217.64 282.10 215.54 272.67 215.00 263.00 C 214.46 253.33 214.80 238.20 216.98 228.98 C 219.15 219.75 222.33 212.92 229.25 206.25 C 236.17 199.57 242.92 195.34 252.02 193.02 C 261.13 190.71 274.87 190.21 284.00 192.00 C 293.13 193.79 301.55 197.52 308.23 203.77 C 314.91 210.02 319.39 216.38 321.97 225.03 C 324.56 233.68 325.04 248.16 324.02 257.02 C 323.01 265.89 322.02 277.91 316.69 284.70 C 311.37 291.48 307.52 300.64 298.30 302.31 C 289.09 303.97 280.37 314.48 292.08 318.92 C 303.79 323.37 308.39 325.87 308.00 339.00
M 731.00 243.00 
C 730.22 243.75 729.54 245.10 729.00 246.00
C 730.99 246.73 734.15 246.54 735.00 249.00
C 747.36 254.03 754.55 269.83 750.07 282.07 C 745.59 294.31 736.41 305.05 722.93 305.93 C 709.44 306.81 687.25 310.53 674.00 306.00
C 667.80 303.88 665.35 298.37 665.00 292.00
C 664.21 277.49 664.07 257.01 665.00 243.00 C 665.93 228.99 660.12 208.53 668.77 197.77 C 677.43 187.01 700.66 194.35 713.00 193.00 C 725.34 191.65 739.08 198.40 744.32 210.68 C 749.57 222.96 743.02 236.83 731.00 243.00
M 410.00 221.00 
C 417.17 221.40 422.16 231.67 422.00 239.00 C 421.84 246.34 421.59 260.42 422.00 269.00 C 422.41 277.58 420.75 290.11 422.00 299.00 C 423.25 307.89 407.10 311.98 401.25 304.75 C 395.40 297.52 391.56 305.37 383.78 307.78 C 375.99 310.18 364.68 310.03 357.78 306.22 C 350.87 302.42 346.19 297.69 344.25 289.75 C 342.30 281.82 342.37 268.61 343.00 260.00 C 343.63 251.39 340.55 238.64 343.93 230.93 C 347.31 223.21 355.16 219.61 361.75 225.25 C 368.35 230.88 368.68 239.71 368.00 249.00 C 367.32 258.29 367.88 270.22 368.98 279.02 C 370.07 287.82 379.24 291.81 387.01 289.01 C 394.78 286.20 397.19 276.53 397.00 269.00 C 396.80 261.47 397.80 245.96 397.00 239.00 C 396.20 232.04 402.50 220.58 410.00 221.00
M 529.00 289.00 
C 532.09 289.32 535.92 289.34 539.00 289.00
C 542.37 288.21 550.34 283.50 552.75 288.25 C 555.16 293.00 556.86 298.55 557.00 304.00
C 545.71 309.14 530.18 310.15 517.99 308.01 C 505.81 305.86 496.85 299.62 491.08 288.92 C 485.30 278.22 484.63 262.73 488.31 251.31 C 491.99 239.88 499.05 231.41 510.68 227.68 C 522.31 223.95 537.46 220.48 549.74 227.26 C 562.03 234.03 551.10 252.37 539.25 244.75 C 527.41 237.12 514.28 248.90 512.03 260.03 C 509.78 271.15 515.36 288.69 529.00 289.00
M 792.00 224.00 
C 797.83 226.37 794.44 237.58 795.00 243.00 C 795.56 248.42 795.07 259.11 795.00 265.00 C 794.93 270.89 795.68 282.73 795.00 288.00 C 794.32 293.27 797.85 305.68 792.70 307.70 C 787.54 309.71 775.51 308.95 770.00 308.00 C 764.49 307.05 767.49 293.93 767.00 289.00 C 766.51 284.07 767.05 272.69 767.00 267.00 C 766.95 261.31 766.70 249.23 767.00 244.00 C 767.30 238.77 764.93 226.67 769.75 224.75 C 774.58 222.84 787.29 222.08 792.00 224.00
M 467.00 225.00 
C 471.92 227.54 468.28 238.78 469.00 244.00 C 469.72 249.22 468.94 260.39 469.00 266.00 C 469.06 271.61 469.66 282.07 469.00 287.00 C 468.34 291.93 471.74 304.91 466.75 306.75 C 461.76 308.59 450.31 308.14 445.33 306.67 C 440.35 305.20 443.63 292.96 443.00 288.00 C 442.37 283.04 443.18 271.51 443.00 266.00 C 442.82 260.49 442.79 249.95 443.00 245.00 C 443.21 240.05 441.12 227.48 445.75 225.75 C 450.39 224.03 462.84 222.85 467.00 225.00 Z"/>
</g>
<g fill="#C9C8CD" fill-opacity="1.00" stroke="None">
<path d="
M 813.00 124.00 
C 834.74 124.00 856.34 124.47 878.00 123.00
C 857.14 122.40 833.60 121.06 813.00 124.00 Z"/>
</g>
<g fill="#CBCBCF" fill-opacity="1.00" stroke="None">
<path d="
M 339.00 133.00 
C 345.67 133.00 352.33 133.00 359.00 133.00
C 386.07 133.00 413.59 132.00 441.00 132.00
C 464.67 132.00 488.33 132.00 512.00 132.00
C 484.17 129.31 453.66 131.55 425.00 131.00 C 396.34 130.45 366.50 130.34 339.00 133.00 Z"/>
</g>
<g fill="#9791AF" fill-opacity="1.00" stroke="None">
<path d="
M 662.00 132.00 
C 612.17 132.00 562.07 132.00 512.00 132.00
C 488.33 132.00 464.67 132.00 441.00 132.00
C 464.46 134.27 489.47 134.37 514.00 134.00 C 538.53 133.63 564.55 134.72 589.00 134.00 C 613.45 133.28 638.97 136.44 662.00 132.00 Z"/>
</g>
<g fill="#9F9AB4" fill-opacity="1.00" stroke="None">
<path d="
M 319.00 134.00 
C 332.23 133.10 346.41 134.22 359.00 133.00
C 352.33 133.00 345.67 133.00 339.00 133.00
C 332.27 133.00 325.05 132.92 319.00 134.00 Z"/>
</g>
<g fill="#DFE3DB" fill-opacity="1.00" stroke="None">
<path d="
M 459.00 183.00 
C 452.42 180.89 449.78 188.26 445.25 191.25 C 440.71 194.24 437.99 200.35 443.25 203.75 C 448.51 207.15 448.58 210.99 453.78 214.22 C 458.97 217.45 462.17 208.40 466.25 206.25 C 470.33 204.10 474.52 196.18 469.25 193.75 C 463.97 191.32 463.83 184.55 459.00 183.00 Z"/>
</g>
<g fill="#E2E5DD" fill-opacity="1.00" stroke="None">
<path d="
M 596.00 257.00 
C 595.31 247.28 596.92 234.41 596.00 225.00 C 595.08 215.59 597.93 202.52 595.78 194.22 C 593.63 185.93 585.71 179.95 578.25 185.25 C 570.79 190.54 570.16 199.52 571.00 209.00 C 571.84 218.48 570.53 231.41 571.00 241.00 C 571.47 250.59 570.59 262.92 571.00 272.00 C 571.41 281.08 570.38 295.27 571.01 302.99 C 571.64 310.72 592.42 309.65 595.22 304.22 C 598.03 298.79 594.74 280.87 596.00 274.00
C 612.89 274.26 619.08 293.92 623.00 307.00
C 629.18 305.99 648.52 310.46 647.93 302.07 C 647.33 293.68 642.35 287.91 638.77 281.23 C 635.19 274.55 628.97 270.76 623.00 267.00
C 627.75 264.50 636.71 261.71 639.68 254.68 C 642.65 247.65 645.86 238.23 640.25 231.75 C 634.64 225.27 631.13 222.17 624.25 228.25 C 617.36 234.33 618.00 240.63 615.92 248.92 C 613.83 257.21 602.87 257.11 596.00 257.00 Z"/>
</g>
<g fill="#E0E4DC" fill-opacity="1.00" stroke="None">
<path d="
M 783.00 183.00 
C 777.73 181.78 766.75 192.37 765.34 197.32 C 763.92 202.27 774.86 211.54 779.33 213.67 C 783.80 215.80 795.28 203.69 796.67 199.67 C 798.05 195.66 786.73 183.87 783.00 183.00 Z"/>
</g>
<g fill="#E2E5DD" fill-opacity="1.00" stroke="None">
<path d="
M 869.00 224.00 
C 858.85 221.85 846.05 223.74 836.69 226.69 C 827.34 229.65 821.51 233.97 816.77 242.77 C 812.03 251.57 810.06 262.02 811.22 272.78 C 812.38 283.53 814.59 289.54 821.25 298.75 C 827.91 307.96 837.15 306.23 847.00 309.00 C 856.85 311.77 865.48 296.67 872.08 301.92 C 878.69 307.17 895.79 311.16 894.00 297.00 C 892.21 282.84 895.16 273.69 894.00 261.00 C 892.84 248.31 895.30 236.68 894.00 225.00 C 892.70 213.32 897.09 200.60 892.25 190.75 C 887.40 180.91 876.83 181.92 871.75 190.75 C 866.68 199.59 869.83 213.53 869.00 224.00
M 863.00 243.00 
C 873.91 245.26 868.28 266.43 869.00 276.00 C 869.72 285.57 853.73 293.32 845.26 286.74 C 836.78 280.17 835.40 267.79 837.99 256.99 C 840.58 246.19 852.05 240.73 863.00 243.00 Z"/>
</g>
<g fill="#E2E6DD" fill-opacity="1.00" stroke="None">
<path d="
M 308.00 339.00 
C 308.39 325.87 303.79 323.37 292.08 318.92 C 280.37 314.48 289.09 303.97 298.30 302.31 C 307.52 300.64 311.37 291.48 316.69 284.70 C 322.02 277.91 323.01 265.89 324.02 257.02 C 325.04 248.16 324.56 233.68 321.97 225.03 C 319.39 216.38 314.91 210.02 308.23 203.77 C 301.55 197.52 293.13 193.79 284.00 192.00 C 274.87 190.21 261.13 190.71 252.02 193.02 C 242.92 195.34 236.17 199.57 229.25 206.25 C 222.33 212.92 219.15 219.75 216.98 228.98 C 214.80 238.20 214.46 253.33 215.00 263.00 C 215.54 272.67 217.64 282.10 224.08 288.92 C 230.52 295.73 233.79 303.25 244.31 304.69 C 254.83 306.14 257.56 314.21 260.23 323.77 C 262.90 333.33 272.11 335.86 279.31 340.69 C 286.51 345.53 300.99 343.30 308.00 339.00
M 296.00 237.00 
C 298.10 245.88 298.09 254.17 296.00 263.00
C 294.32 275.88 286.64 284.38 274.00 287.00
C 268.92 288.05 264.80 288.14 260.00 286.00
C 251.47 282.19 245.74 276.36 244.00 267.00
C 240.88 257.39 240.50 247.53 242.00 237.00
C 243.31 227.80 247.88 216.95 258.00 214.00
C 277.63 208.29 293.44 217.32 296.00 237.00 Z"/>
</g>
<g fill="#E2E6DD" fill-opacity="1.00" stroke="None">
<path d="
M 665.00 292.00 
C 665.80 296.44 669.28 303.91 674.00 306.00
C 687.25 310.53 709.44 306.81 722.93 305.93 C 736.41 305.05 745.59 294.31 750.07 282.07 C 754.55 269.83 747.36 254.03 735.00 249.00
C 732.32 247.91 729.65 247.16 727.00 246.00
C 726.47 243.47 729.74 244.25 731.00 243.00
C 743.02 236.83 749.57 222.96 744.32 210.68 C 739.08 198.40 725.34 191.65 713.00 193.00 C 700.66 194.35 677.43 187.01 668.77 197.77 C 660.12 208.53 665.93 228.99 665.00 243.00 C 664.07 257.01 664.21 277.49 665.00 292.00
M 715.00 214.00 
C 717.73 216.11 718.57 217.56 719.00 221.00
C 721.25 239.15 708.53 233.82 699.25 243.25 C 689.97 252.68 704.93 257.33 715.23 260.77 C 725.53 264.21 726.54 280.54 715.00 286.00
C 710.42 288.17 700.89 289.62 695.00 288.00
C 686.11 285.55 689.64 262.59 690.00 254.00 C 690.36 245.41 686.61 223.08 692.00 216.00
C 692.43 215.44 692.85 214.69 693.00 214.00
C 694.31 208.17 710.80 210.75 715.00 214.00 Z"/>
</g>
<g fill="#C2C1C9" fill-opacity="1.00" stroke="None">
<path d="
M 693.00 214.00 
C 693.85 213.18 694.91 213.17 696.00 213.00
C 699.31 211.88 706.88 210.69 710.00 213.00
C 710.50 213.00 711.00 213.00 711.00 213.00
C 712.11 213.15 714.00 213.51 715.00 214.00
C 710.80 210.75 694.31 208.17 693.00 214.00 Z"/>
</g>
<g fill="#9A94B1" fill-opacity="1.00" stroke="None">
<path d="
M 696.00 213.00 
C 700.43 212.32 705.51 213.00 710.00 213.00
C 706.88 210.69 699.31 211.88 696.00 213.00 Z"/>
</g>
<g fill="#786F9C" fill-opacity="1.00" stroke="None">
<path d="
M 258.00 214.00 
C 257.60 214.24 256.41 215.64 256.00 216.00
C 252.48 219.10 246.92 223.76 245.00 228.00
C 244.52 229.50 244.31 231.40 244.00 233.00
C 241.99 243.38 242.07 256.61 244.00 267.00
C 245.74 276.36 251.47 282.19 260.00 286.00
C 264.13 287.17 269.54 287.41 274.00 287.00
C 286.64 284.38 294.32 275.88 296.00 263.00
C 297.13 254.34 297.13 245.67 296.00 237.00
C 293.44 217.32 277.63 208.29 258.00 214.00 Z"/>
</g>
<g fill="#79709D" fill-opacity="1.00" stroke="None">
<path d="
M 693.00 214.00 
C 692.85 214.69 692.43 215.44 692.00 216.00
C 692.13 225.36 692.12 235.30 692.00 246.00 C 691.88 256.70 692.38 266.80 692.00 278.00 C 691.62 289.20 706.65 288.61 715.00 286.00
C 726.54 280.54 725.53 264.21 715.23 260.77 C 704.93 257.33 689.97 252.68 699.25 243.25 C 708.53 233.82 721.25 239.15 719.00 221.00
C 717.98 216.38 714.04 215.61 711.00 213.00
C 711.00 213.00 710.50 213.00 710.00 213.00
C 705.51 213.00 700.43 212.32 696.00 213.00
C 694.91 213.17 693.85 213.18 693.00 214.00 Z"/>
</g>
<g fill="#9891B0" fill-opacity="1.00" stroke="None">
<path d="
M 719.00 221.00 
C 718.57 217.56 717.73 216.11 715.00 214.00
C 714.00 213.51 712.11 213.15 711.00 213.00
C 714.04 215.61 717.98 216.38 719.00 221.00 Z"/>
</g>
<g fill="#BFBEC8" fill-opacity="1.00" stroke="None">
<path d="
M 242.00 237.00 
C 242.29 236.00 243.68 233.97 244.00 233.00
C 244.31 231.40 244.52 229.50 245.00 228.00
C 246.76 222.54 251.50 218.74 256.00 216.00
C 256.41 215.64 257.60 214.24 258.00 214.00
C 247.88 216.95 243.31 227.80 242.00 237.00 Z"/>
</g>
<g fill="#958FAE" fill-opacity="1.00" stroke="None">
<path d="
M 245.00 228.00 
C 246.92 223.76 252.48 219.10 256.00 216.00
C 251.50 218.74 246.76 222.54 245.00 228.00 Z"/>
</g>
<g fill="#C8C8CD" fill-opacity="1.00" stroke="None">
<path d="
M 695.00 288.00 
C 687.96 285.14 691.64 273.70 691.00 267.00 C 690.36 260.30 691.19 248.53 691.00 241.00 C 690.81 233.47 690.42 223.33 692.00 216.00
C 686.61 223.08 690.36 245.41 690.00 254.00 C 689.64 262.59 686.11 285.55 695.00 288.00 Z"/>
</g>
<g fill="#8E86A9" fill-opacity="1.00" stroke="None">
<path d="
M 695.00 288.00 
C 700.89 289.62 710.42 288.17 715.00 286.00
C 706.65 288.61 691.62 289.20 692.00 278.00 C 692.38 266.80 691.88 256.70 692.00 246.00 C 692.12 235.30 692.13 225.36 692.00 216.00
C 690.42 223.33 690.81 233.47 691.00 241.00 C 691.19 248.53 690.36 260.30 691.00 267.00 C 691.64 273.70 687.96 285.14 695.00 288.00 Z"/>
</g>
<g fill="#E2E6DD" fill-opacity="1.00" stroke="None">
<path d="
M 410.00 221.00 
C 402.50 220.58 396.20 232.04 397.00 239.00 C 397.80 245.96 396.80 261.47 397.00 269.00 C 397.19 276.53 394.78 286.20 387.01 289.01 C 379.24 291.81 370.07 287.82 368.98 279.02 C 367.88 270.22 367.32 258.29 368.00 249.00 C 368.68 239.71 368.35 230.88 361.75 225.25 C 355.16 219.61 347.31 223.21 343.93 230.93 C 340.55 238.64 343.63 251.39 343.00 260.00 C 342.37 268.61 342.30 281.82 344.25 289.75 C 346.19 297.69 350.87 302.42 357.78 306.22 C 364.68 310.03 375.99 310.18 383.78 307.78 C 391.56 305.37 395.40 297.52 401.25 304.75 C 407.10 311.98 423.25 307.89 422.00 299.00 C 420.75 290.11 422.41 277.58 422.00 269.00 C 421.59 260.42 421.84 246.34 422.00 239.00 C 422.16 231.67 417.17 221.40 410.00 221.00 Z"/>
</g>
<g fill="#E1E5DC" fill-opacity="1.00" stroke="None">
<path d="
M 539.00 289.00 
C 535.46 289.82 532.48 289.77 529.00 289.00
C 515.36 288.69 509.78 271.15 512.03 260.03 C 514.28 248.90 527.41 237.12 539.25 244.75 C 551.10 252.37 562.03 234.03 549.74 227.26 C 537.46 220.48 522.31 223.95 510.68 227.68 C 499.05 231.41 491.99 239.88 488.31 251.31 C 484.63 262.73 485.30 278.22 491.08 288.92 C 496.85 299.62 505.81 305.86 517.99 308.01 C 530.18 310.15 545.71 309.14 557.00 304.00
C 556.86 298.55 555.16 293.00 552.75 288.25 C 550.34 283.50 542.37 288.21 539.00 289.00 Z"/>
</g>
<g fill="#9993B0" fill-opacity="1.00" stroke="None">
<path d="
M 792.00 224.00 
C 787.29 222.08 774.58 222.84 769.75 224.75 C 764.93 226.67 767.30 238.77 767.00 244.00 C 766.70 249.23 766.95 261.31 767.00 267.00 C 767.05 272.69 766.51 284.07 767.00 289.00 C 767.49 293.93 764.49 307.05 770.00 308.00 C 775.51 308.95 787.54 309.71 792.70 307.70 C 797.85 305.68 794.32 293.27 795.00 288.00 C 795.68 282.73 794.93 270.89 795.00 265.00 C 795.07 259.11 795.56 248.42 795.00 243.00 C 794.44 237.58 797.83 226.37 792.00 224.00
M 769.00 305.00 
C 765.06 299.54 768.63 287.14 768.00 280.00 C 767.37 272.86 767.22 261.20 768.00 254.00 C 768.78 246.80 764.99 233.55 769.00 228.00
C 772.67 222.92 794.69 222.86 793.00 233.00 C 791.31 243.14 792.93 255.53 793.00 266.00 C 793.07 276.47 791.12 288.55 793.00 299.00 C 794.88 309.45 773.09 310.67 769.00 305.00 Z"/>
</g>
<g fill="#E0E4DC" fill-opacity="1.00" stroke="None">
<path d="
M 467.00 225.00 
C 462.84 222.85 450.39 224.03 445.75 225.75 C 441.12 227.48 443.21 240.05 443.00 245.00 C 442.79 249.95 442.82 260.49 443.00 266.00 C 443.18 271.51 442.37 283.04 443.00 288.00 C 443.63 292.96 440.35 305.20 445.33 306.67 C 450.31 308.14 461.76 308.59 466.75 306.75 C 471.74 304.91 468.34 291.93 469.00 287.00 C 469.66 282.07 469.06 271.61 469.00 266.00 C 468.94 260.39 469.72 249.22 469.00 244.00 C 468.28 238.78 471.92 227.54 467.00 225.00 Z"/>
</g>
<g fill="#E3E7DE" fill-opacity="1.00" stroke="None">
<path d="
M 769.00 228.00 
C 765.91 234.24 769.73 245.78 769.00 253.00 C 768.27 260.22 768.09 271.73 769.00 279.00 C 769.91 286.27 765.84 298.61 769.00 305.00
C 773.09 310.67 794.88 309.45 793.00 299.00 C 791.12 288.55 793.07 276.47 793.00 266.00 C 792.93 255.53 791.31 243.14 793.00 233.00 C 794.69 222.86 772.67 222.92 769.00 228.00 Z"/>
</g>
<g fill="#B3B1BF" fill-opacity="1.00" stroke="None">
<path d="
M 769.00 305.00 
C 765.84 298.61 769.91 286.27 769.00 279.00 C 768.09 271.73 768.27 260.22 769.00 253.00 C 769.73 245.78 765.91 234.24 769.00 228.00
C 764.99 233.55 768.78 246.80 768.00 254.00 C 767.22 261.20 767.37 272.86 768.00 280.00 C 768.63 287.14 765.06 299.54 769.00 305.00 Z"/>
</g>
<g fill="#ACA8BB" fill-opacity="1.00" stroke="None">
<path d="
M 1026.00 262.00 
C 1027.36 252.50 1027.00 241.28 1027.00 231.00
C 1026.07 240.56 1026.39 251.70 1026.00 262.00 Z"/>
</g>
<g fill="#9B95B2" fill-opacity="1.00" stroke="None">
<path d="
M 242.00 237.00 
C 240.50 247.53 240.88 257.39 244.00 267.00
C 242.07 256.61 241.99 243.38 244.00 233.00
C 243.68 233.97 242.29 236.00 242.00 237.00 Z"/>
</g>
<g fill="#AFACBE" fill-opacity="1.00" stroke="None">
<path d="
M 296.00 263.00 
C 298.09 254.17 298.10 245.88 296.00 237.00
C 297.13 245.67 297.13 254.34 296.00 263.00 Z"/>
</g>
<g fill="#AAA6BA" fill-opacity="1.00" stroke="None">
<path d="
M 735.00 249.00 
C 734.15 246.54 730.99 246.73 729.00 246.00
C 729.54 245.10 730.22 243.75 731.00 243.00
C 729.74 244.25 726.47 243.47 727.00 246.00
C 729.65 247.16 732.32 247.91 735.00 249.00 Z"/>
</g>
<g fill="#7A719D" fill-opacity="1.00" stroke="None">
<path d="
M 863.00 243.00 
C 852.05 240.73 840.58 246.19 837.99 256.99 C 835.40 267.79 836.78 280.17 845.26 286.74 C 853.73 293.32 869.72 285.57 869.00 276.00 C 868.28 266.43 873.91 245.26 863.00 243.00 Z"/>
</g>
<g fill="#ADA9BC" fill-opacity="1.00" stroke="None">
<path d="
M 274.00 287.00 
C 269.54 287.41 264.13 287.17 260.00 286.00
C 264.80 288.14 268.92 288.05 274.00 287.00 Z"/>
</g>
<g fill="#ADA9BC" fill-opacity="1.00" stroke="None">
<path d="
M 1022.00 294.00 
C 1022.41 291.87 1023.84 289.96 1024.00 287.00
C 1023.60 288.95 1022.12 290.92 1022.00 294.00 Z"/>
</g>
<g fill="#A9A5BB" fill-opacity="1.00" stroke="None">
<path d="
M 539.00 289.00 
C 535.92 289.34 532.09 289.32 529.00 289.00
C 532.48 289.77 535.46 289.82 539.00 289.00 Z"/>
</g>
<g fill="#ABA7BB" fill-opacity="1.00" stroke="None">
<path d="
M 674.00 306.00 
C 669.28 303.91 665.80 296.44 665.00 292.00
C 665.35 298.37 667.80 303.88 674.00 306.00 Z"/>
</g>
<g fill="#B0ACBE" fill-opacity="1.00" stroke="None">
<path d="
M 1021.00 313.00 
C 1021.23 310.64 1022.00 307.10 1022.00 304.00
C 1021.77 306.36 1021.00 309.90 1021.00 313.00 Z"/>
</g>
<g fill="#AEAABD" fill-opacity="1.00" stroke="None">
<path d="
M 933.00 399.00 
C 937.26 398.66 940.80 397.74 944.00 397.00
C 939.88 397.25 936.49 398.14 933.00 399.00 Z"/>
</g>
<g fill="#9791AF" fill-opacity="1.00" stroke="None">
<path d="
M 599.00 406.00 
C 608.55 406.00 617.39 405.00 627.00 405.00
C 663.24 405.00 700.36 404.00 737.00 404.00
C 715.02 401.87 689.75 402.76 667.00 403.00 C 644.25 403.24 620.37 401.88 599.00 406.00 Z"/>
</g>
<g fill="#948DAD" fill-opacity="1.00" stroke="None">
<path d="
M 499.00 406.00 
C 526.92 406.00 554.43 406.00 582.00 406.00
C 569.37 403.43 554.02 404.44 540.00 404.00 C 525.98 403.56 511.96 404.75 499.00 406.00 Z"/>
</g>
<g fill="#CCCCCF" fill-opacity="1.00" stroke="None">
<path d="
M 627.00 405.00 
C 617.39 405.00 608.55 406.00 599.00 406.00
C 593.33 406.00 587.67 406.00 582.00 406.00
C 554.43 406.00 526.92 406.00 499.00 406.00
C 486.11 406.00 472.46 406.93 460.00 405.00
C 476.57 409.86 496.63 405.95 515.00 407.00 C 533.37 408.05 553.52 406.16 572.00 407.00 C 590.48 407.84 609.62 406.68 627.00 405.00 Z"/>
</g>
</svg>