<svg width="161" height="75" viewBox="0 0 161 75" fill="none" xmlns="http://www.w3.org/2000/svg">
<g clip-path="url(#clip0_36_42021)">
<path d="M0 75H160.577V0H0V75ZM150.194 33.9706C150.194 35.4824 150.246 37.1324 150.047 38.5294C150 39.7632 149.822 40.9618 149.755 42.2059C149.731 42.6412 149.522 42.9221 149.462 43.2353C149.443 43.7235 149.462 44.2176 149.462 44.7059C149.462 45.1618 149.35 45.6824 149.316 46.0294C149.316 48.3632 149.394 51.1574 148.763 53.2676C148.133 55.3794 147.204 57.0853 144.929 57.3529C142.652 57.6191 140.389 58.2426 138.055 58.3824C137.587 58.4912 137.07 58.6265 136.447 58.6765C127.052 59.4265 117.408 59.4118 107.783 59.4118C102.424 59.4118 96.9955 59.5588 91.6956 59.5588C89.1538 59.8059 86.3547 59.9765 83.6521 59.8529C80.9495 59.7294 78.0026 60.0074 75.3161 59.8529C72.6296 59.6985 69.6959 60.2735 67.2727 59.5588C66.2007 59.3926 64.9503 60.0941 63.811 59.5103C62.6718 58.9265 61.5984 59.7397 60.3991 59.7059C59.1999 59.6721 57.9159 59.2412 56.7416 59.1191C55.5687 58.9956 54.4558 60.2853 54.2086 58.725C53.9615 57.1647 51.7488 58.8853 52.2094 59.7059C51.1418 59.5853 51.1038 56.4971 50.0158 57.7941C50.7689 58.0838 50.336 58.9618 49.577 58.6765C49.6809 59.5338 48.8458 60.0456 48.2243 59.4485C47.6042 58.85 46.2982 59.5324 46.6521 58.2353C45.5012 58.8765 44.4351 58.8868 43.132 58.5397C41.829 58.1927 40.4221 58.2912 39.0474 58.0882C37.6727 57.8853 36.1196 57.9176 34.66 57.9412C33.2005 57.9647 31.5948 57.8882 30.1265 57.9412C28.6582 57.9941 27.1489 57.8794 25.7391 57.7941C24.3278 57.7088 22.9078 57.6015 21.5463 57.4515C20.1847 57.3015 19.1288 56.9544 17.8302 56.6294C16.533 56.3029 15.7974 55.8794 14.5221 55.3971C13.2483 54.9147 12.6648 54.2882 13.6008 52.9412C12.7584 52.5897 13.045 51.45 12.5888 50.7235C12.131 49.9985 12.1705 48.8132 12.5771 48.0882C11.7303 47.6279 12.248 46.6794 12.6209 46.0735C12.9953 45.4691 12.6809 44.0603 13.8933 44.4118C15.1056 44.7632 14.9828 43.6794 15.4654 43.0515C15.9495 42.425 16.6295 42.2147 17.3549 42.0103C18.0817 41.8074 19.0089 41.7103 19.7431 41.4706C19.4681 39.8265 17.8916 38.6485 18.8334 36.7324C19.7752 34.8162 17.0492 35.2794 16.3794 33.8235C14.7795 34.1426 15.0194 31.8338 13.9956 30.6324C12.9719 29.4324 12.6312 28.1294 11.995 26.6147C11.3603 25.0985 12.6224 23.5 14.2194 23.1221C15.8164 22.7441 17.5728 22.2868 19.3043 22.2059C21.0359 22.125 22.6738 21.6794 24.4229 21.4706C26.172 21.2618 27.9693 20.95 29.7857 20.8338C31.6021 20.7176 33.3906 20.3603 35.2553 20.3044C37.1213 20.2485 39.0869 20.1529 40.9486 20C42.8103 19.8471 44.7963 19.9103 46.6521 19.7059C47.5369 19.5471 48.5928 19.5588 49.577 19.5588C53.5988 19.1676 57.9627 19.1838 62.1541 19.2647C66.3455 19.3456 70.8074 19.0162 74.8774 19.4118C82.1999 19.4118 89.5267 19.4118 96.8141 19.4118C104.223 19.4118 111.507 18.2353 118.897 18.2353C121.91 17.8029 125.352 18 128.403 18.0882C134.314 17.6838 139.964 16.8559 145.379 19.5471C150.793 22.2382 150.194 28.6324 150.194 33.9706Z" stroke="#E5E8DE" stroke-width="0.3"/>
<path d="M128.403 18.0882C125.235 18.3044 122.077 18.2353 118.897 18.2353C111.507 18.2353 104.223 19.4118 96.8142 19.4118C93.4462 20.0647 89.7141 19.6 86.1384 19.7059C82.5627 19.8118 78.7574 19.6515 75.17 19.7059C71.5826 19.7603 67.925 19.7456 64.4941 19.4118C60.4855 19.4118 56.4609 19.5588 52.502 19.5588C50.6608 19.7382 48.5871 19.5735 46.6522 19.7059C44.7964 19.9103 42.8104 19.8471 40.9487 20C39.087 20.1529 37.1215 20.2485 35.2554 20.3044C33.3908 20.3603 31.6022 20.7176 29.7858 20.8338C27.9695 20.95 26.1721 21.2618 24.423 21.4706C22.6739 21.6794 21.036 22.125 19.3044 22.2059C17.5729 22.2868 15.8165 22.7441 14.2195 23.1221C12.6225 23.5 11.3604 25.0985 11.9951 26.6147C12.6313 28.1294 12.972 29.4324 13.9957 30.6324C15.0195 31.8338 14.7796 34.1426 16.3795 33.8235C17.0493 35.2794 19.7753 34.8162 18.8335 36.7323C17.8917 38.6485 19.4682 39.8265 19.7432 41.4706C19.009 41.7103 18.0818 41.8073 17.355 42.0103C16.6296 42.2147 15.9496 42.425 15.4655 43.0515C14.9829 43.6794 15.1057 44.7632 13.8934 44.4118C12.681 44.0603 12.9954 45.4691 12.621 46.0735C12.2481 46.6794 11.7304 47.6279 12.5772 48.0882C12.1706 48.8132 12.1311 49.9985 12.5889 50.7235C13.0452 51.45 12.7585 52.5897 13.6009 52.9412C12.6649 54.2882 13.2484 54.9147 14.5222 55.3971C15.7975 55.8794 16.5331 56.3029 17.8303 56.6294C19.1289 56.9544 20.1848 57.3015 21.5464 57.4515C22.9079 57.6015 24.328 57.7088 25.7392 57.7941C27.149 57.8794 28.6583 57.9941 30.1266 57.9412C31.5949 57.8882 33.2006 57.9647 34.6602 57.9412C36.1197 57.9176 37.6728 57.8853 39.0475 58.0882C40.4222 58.2912 41.8291 58.1926 43.1321 58.5397C44.4352 58.8868 45.5013 58.8765 46.6522 58.2353C46.2983 59.5323 47.6043 58.85 48.2244 59.4485C48.8459 60.0456 49.681 59.5338 49.5771 58.6765C50.3361 58.9618 50.769 58.0838 50.0159 57.7941C51.1039 56.4971 51.142 59.5853 52.2095 59.7059C51.7489 58.8853 53.9616 57.1647 54.2087 58.725C54.4559 60.2853 55.5688 58.9956 56.7417 59.1191C57.916 59.2412 59.2001 59.6721 60.3993 59.7059C61.5985 59.7397 62.6719 58.9265 63.8112 59.5103C64.9504 60.0941 66.2008 59.3926 67.2728 59.5588C69.095 59.8426 71.0912 59.7059 72.9763 59.7059C74.8717 59.5221 76.922 59.3471 78.9724 59.4118C81.0227 59.4765 83.2676 59.3279 85.1147 59.7059C85.9439 59.7059 86.7716 59.7059 87.6008 59.7059C90.7261 59.1 94.2184 59.3 97.5455 59.2647C100.873 59.2294 104.568 59.0985 107.783 59.4118C117.408 59.4118 127.052 59.4265 136.447 58.6765C136.957 58.55 137.453 58.4191 138.055 58.3823C140.389 58.2426 142.652 57.6191 144.929 57.3529C147.204 57.0853 148.133 55.3794 148.763 53.2676C149.394 51.1573 149.316 48.3632 149.316 46.0294C149.316 45.5735 149.429 45.0529 149.462 44.7059C149.462 44.2176 149.443 43.7235 149.462 43.2353C149.48 42.7823 149.696 42.4926 149.755 42.2059C149.822 40.9618 150.001 39.7632 150.047 38.5294C150.104 37.0147 150.058 35.3765 150.194 33.9706C150.194 28.6323 150.793 22.2382 145.379 19.5471C139.964 16.8559 134.314 17.6838 128.403 18.0882ZM67.1265 26.9118C67.8329 27.1397 67.8534 28.1353 68.6255 28.4926C69.3962 28.85 68.7835 30.0147 68.1868 30.3309C67.5901 30.6471 67.1221 31.9779 66.3631 31.5029C65.6027 31.0279 65.5924 30.4632 64.8232 29.9632C64.0539 29.4632 64.4517 28.5647 65.1157 28.125C65.7781 27.6853 66.1642 26.6015 67.1265 26.9118ZM87.1621 37.7941C88.1668 37.8103 89.7696 37.825 90.0753 36.6059C90.3795 35.3868 90.2859 34.4603 91.2935 33.5662C92.2997 32.6721 92.813 33.1279 93.6334 34.0809C94.4539 35.0338 93.9844 36.4191 93.5501 37.4529C93.1157 38.4868 91.8054 38.8971 91.1107 39.2647C91.9838 39.8176 92.8934 40.375 93.417 41.3573C93.9405 42.3397 94.6688 43.1882 94.7566 44.4221C94.8429 45.6559 92.0145 44.9985 91.1107 45.1471C90.5374 43.2235 89.6322 40.3323 87.1621 40.2941C86.9778 41.3044 87.459 43.9397 87.048 44.7382C86.6385 45.5368 83.5996 45.6941 83.5074 44.5573C83.4153 43.4221 83.5659 41.3353 83.506 40C83.446 38.6647 83.5747 36.8515 83.506 35.4412C83.4372 34.0309 83.6288 32.1294 83.506 30.7353C83.3831 29.3412 83.4752 28.0206 84.5662 27.2426C85.6572 26.4632 86.8155 27.3426 87.1299 28.5618C87.4443 29.7823 87.0275 31.7044 87.1621 33.0882C87.2966 34.4721 87.0612 36.3647 87.1621 37.7941ZM114.51 26.9118C115.055 27.0397 116.711 28.7735 116.509 29.3632C116.306 29.9544 114.627 31.7353 113.973 31.4221C113.319 31.1088 111.72 29.7456 111.927 29.0176C112.133 28.2897 113.739 26.7323 114.51 26.9118ZM127.087 32.9412C127.208 31.4015 126.748 29.3515 127.489 28.0515C128.232 26.7529 129.778 26.6044 130.487 28.0515C131.195 29.5 130.553 31.3706 130.743 33.0882C130.933 34.8059 130.573 36.5162 130.743 38.3823C130.913 40.2485 130.481 41.5941 130.743 43.6765C131.005 45.7588 128.504 45.1721 127.537 44.4C126.572 43.6279 125.31 45.8485 123.87 45.4412C122.429 45.0338 121.078 45.2882 120.104 43.9338C119.13 42.5794 118.807 41.6956 118.637 40.1147C118.467 38.5323 118.755 36.9956 119.449 35.7015C120.142 34.4074 120.994 33.7721 122.362 33.3368C123.731 32.9029 125.603 32.625 127.087 32.9412ZM45.0435 49.8529C44.0184 50.4853 41.9007 50.8132 40.8478 50.1015C39.7948 49.3912 38.4479 49.0191 38.0574 47.6132C37.667 46.2073 37.2677 45.0206 35.7292 44.8073C34.1907 44.5956 33.7125 43.4897 32.7707 42.4882C31.8289 41.4853 31.5217 40.0985 31.4428 38.6765C31.3638 37.2544 31.4135 35.0294 31.7323 33.6735C32.0497 32.3162 32.5147 31.3118 33.5268 30.3309C34.5388 29.3485 35.5259 28.7265 36.8568 28.3853C38.189 28.0456 40.1985 27.9721 41.5337 28.2353C42.8689 28.4985 44.1003 29.0471 45.0772 29.9662C46.0541 30.8853 46.7093 31.8206 47.0866 33.0926C47.4654 34.3647 47.5356 36.4941 47.3864 37.7971C47.2387 39.1015 47.0939 40.8691 46.3144 41.8676C45.5364 42.8647 44.9733 44.2118 43.625 44.4573C42.2781 44.7015 41.0028 46.2471 42.7153 46.9C44.4279 47.5544 45.1006 47.9221 45.0435 49.8529ZM106.905 35.7353C106.791 35.8456 106.692 36.0441 106.613 36.1765C106.904 36.2838 107.366 36.2559 107.49 36.6176C109.298 37.3573 110.349 39.6809 109.694 41.4809C109.039 43.2809 107.696 44.8603 105.725 44.9897C103.752 45.1191 100.507 45.6662 98.5692 45C97.6625 44.6882 97.3042 43.8779 97.253 42.9412C97.1374 40.8073 97.117 37.7956 97.253 35.7353C97.389 33.675 96.5393 30.6662 97.8043 29.0838C99.0708 27.5015 102.468 28.5809 104.273 28.3823C106.077 28.1838 108.087 29.1765 108.853 30.9823C109.621 32.7882 108.663 34.8279 106.905 35.7353ZM59.9605 32.5C61.0091 32.5588 61.7389 34.0691 61.7155 35.1471C61.6921 36.2265 61.6555 38.2971 61.7155 39.5588C61.7754 40.8206 61.5327 42.6632 61.7155 43.9706C61.8983 45.2779 59.5364 45.8794 58.6809 44.8162C57.8253 43.7529 57.2638 44.9073 56.126 45.2618C54.9867 45.6147 53.3327 45.5926 52.3236 45.0323C51.3131 44.4735 50.6286 43.7779 50.3449 42.6103C50.0597 41.4441 50.07 39.5015 50.1621 38.2353C50.2543 36.9691 49.8038 35.0941 50.2981 33.9603C50.7924 32.825 51.9405 32.2956 52.9042 33.125C53.8694 33.9529 53.9177 35.2515 53.8182 36.6176C53.7188 37.9838 53.8007 39.7382 53.9616 41.0323C54.121 42.3265 55.462 42.9132 56.5984 42.5015C57.7347 42.0882 58.0871 40.6662 58.0593 39.5588C58.0301 38.4515 58.1763 36.1706 58.0593 35.1471C57.9423 34.1235 58.8637 32.4382 59.9605 32.5ZM77.3637 42.5C77.8156 42.5471 78.3757 42.55 78.8261 42.5C79.319 42.3838 80.4845 41.6912 80.837 42.3897C81.1894 43.0882 81.4381 43.9044 81.4585 44.7059C79.8074 45.4618 77.5362 45.6103 75.7535 45.2956C73.9722 44.9794 72.6619 44.0618 71.8181 42.4882C70.9728 40.9147 70.8748 38.6368 71.413 36.9573C71.9511 35.2765 72.9836 34.0309 74.6845 33.4823C76.3853 32.9338 78.6009 32.4235 80.3968 33.4206C82.1941 34.4162 80.5957 37.1132 78.8627 35.9926C77.1311 34.8706 75.2109 36.6029 74.8819 38.2397C74.5528 39.875 75.3689 42.4544 77.3637 42.5ZM115.826 32.9412C116.679 33.2897 116.183 34.9382 116.265 35.7353C116.347 36.5323 116.275 38.1044 116.265 38.9706C116.255 39.8368 116.364 41.5779 116.265 42.3529C116.165 43.1279 116.682 44.9529 115.928 45.25C115.174 45.5456 113.415 45.4338 112.609 45.2941C111.803 45.1544 112.242 43.225 112.17 42.5C112.098 41.775 112.177 40.1015 112.17 39.2647C112.163 38.4279 112.126 36.6515 112.17 35.8823C112.214 35.1132 111.867 33.3338 112.572 33.0515C113.279 32.7706 115.137 32.6588 115.826 32.9412ZM68.2965 33.0882C69.016 33.4618 68.4837 35.1147 68.589 35.8823C68.6943 36.65 68.5802 38.2926 68.589 39.1176C68.5977 39.9426 68.6855 41.4809 68.589 42.2059C68.4925 42.9309 68.9897 44.8397 68.2599 45.1103C67.5302 45.3809 65.8557 45.3147 65.1274 45.0985C64.3991 44.8823 64.8787 43.0823 64.7866 42.3529C64.6945 41.6235 64.8129 39.9279 64.7866 39.1176C64.7603 38.3073 64.7559 36.7573 64.7866 36.0294C64.8173 35.3015 64.5117 33.4529 65.1888 33.1985C65.8674 32.9456 67.6881 32.7721 68.2965 33.0882Z" stroke="#776E9C" stroke-width="0.3"/>
<path d="M118.897 18.2353C122.077 18.2353 125.235 18.3044 128.403 18.0882C125.352 18 121.91 17.8029 118.897 18.2353Z" stroke="#C9C8CD" stroke-width="0.3"/>
<path d="M49.5771 19.5588C50.5526 19.5588 51.5266 19.5588 52.502 19.5588C56.4609 19.5588 60.4856 19.4118 64.4941 19.4118C67.9557 19.4118 71.4159 19.4118 74.8775 19.4118C70.8075 19.0162 66.3456 19.3456 62.1542 19.2647C57.9628 19.1838 53.5989 19.1677 49.5771 19.5588Z" stroke="#CBCBCF" stroke-width="0.3"/>
<path d="M96.814 19.4117C89.5266 19.4117 82.1998 19.4117 74.8773 19.4117C71.4157 19.4117 67.9555 19.4117 64.4939 19.4117C67.9248 19.7456 71.5824 19.7603 75.1698 19.7059C78.7572 19.6514 82.5625 19.8117 86.1381 19.7059C89.7138 19.6 93.446 20.0647 96.814 19.4117Z" stroke="#9791AF" stroke-width="0.3"/>
<path d="M46.6521 19.7058C48.5869 19.5735 50.6607 19.7382 52.5019 19.5588C51.5264 19.5588 50.5525 19.5588 49.577 19.5588C48.5928 19.5588 47.5369 19.547 46.6521 19.7058Z" stroke="#9F9AB4" stroke-width="0.3"/>
<path d="M67.1264 26.9117C66.1641 26.6014 65.778 27.6852 65.1155 28.1249C64.4516 28.5646 64.0538 29.4632 64.8231 29.9632C65.5923 30.4632 65.6025 31.0279 66.363 31.5029C67.122 31.9779 67.59 30.647 68.1867 30.3308C68.7834 30.0146 69.3961 28.8499 68.6254 28.4926C67.8533 28.1352 67.8328 27.1396 67.1264 26.9117Z" stroke="#DFE3DB" stroke-width="0.3"/>
<path d="M87.1619 37.7941C87.061 36.3647 87.2965 34.472 87.1619 33.0882C87.0274 31.7044 87.4442 29.7823 87.1298 28.5617C86.8153 27.3426 85.6571 26.4632 84.5661 27.2426C83.4751 28.0206 83.383 29.3411 83.5058 30.7353C83.6287 32.1294 83.4371 34.0308 83.5058 35.4411C83.5745 36.8514 83.4459 38.6647 83.5058 40C83.5658 41.3353 83.4151 43.422 83.5073 44.5573C83.5994 45.6941 86.6384 45.5367 87.0479 44.7382C87.4588 43.9397 86.9777 41.3044 87.1619 40.2941C89.632 40.3323 90.5373 43.2235 91.1105 45.147C92.0143 44.9985 94.8427 45.6558 94.7564 44.422C94.6687 43.1882 93.9404 42.3397 93.4168 41.3573C92.8933 40.375 91.9836 39.8176 91.1105 39.2647C91.8052 38.897 93.1156 38.4867 93.5499 37.4529C93.9843 36.4191 94.4537 35.0338 93.6333 34.0808C92.8128 33.1279 92.2995 32.672 91.2934 33.5661C90.2857 34.4603 90.3793 35.3867 90.0751 36.6058C89.7695 37.825 88.1666 37.8103 87.1619 37.7941Z" stroke="#E2E5DD" stroke-width="0.3"/>
<path d="M114.51 26.9117C113.739 26.7323 112.133 28.2897 111.927 29.0176C111.719 29.7456 113.319 31.1088 113.973 31.422C114.627 31.7353 116.306 29.9544 116.509 29.3632C116.711 28.7735 115.055 27.0397 114.51 26.9117Z" stroke="#E0E4DC" stroke-width="0.3"/>
<path d="M127.087 32.9412C125.602 32.625 123.731 32.9029 122.362 33.3368C120.994 33.7721 120.142 34.4073 119.449 35.7015C118.755 36.9956 118.467 38.5323 118.637 40.1147C118.806 41.6956 119.13 42.5794 120.104 43.9338C121.078 45.2882 122.429 45.0338 123.869 45.4412C125.31 45.8485 126.572 43.6279 127.537 44.4C128.504 45.1721 131.005 45.7588 130.743 43.6765C130.481 41.5941 130.913 40.2485 130.743 38.3823C130.573 36.5162 130.933 34.8059 130.743 33.0882C130.553 31.3706 131.195 29.5 130.487 28.0515C129.778 26.6044 128.232 26.7529 127.489 28.0515C126.748 29.3515 127.208 31.4015 127.087 32.9412ZM126.209 35.7353C127.805 36.0676 126.982 39.1809 127.087 40.5882C127.192 41.9956 124.854 43.1353 123.615 42.1676C122.375 41.2015 122.173 39.3809 122.552 37.7926C122.931 36.2044 124.608 35.4015 126.209 35.7353Z" stroke="#E2E5DD" stroke-width="0.3"/>
<path d="M45.0435 49.8529C45.1005 47.922 44.4278 47.5544 42.7153 46.8999C41.0028 46.247 42.278 44.7014 43.6249 44.4573C44.9733 44.2117 45.5364 42.8646 46.3144 41.8676C47.0939 40.8691 47.2386 39.1014 47.3863 37.797C47.5355 36.4941 47.4653 34.3646 47.0865 33.0926C46.7092 31.8205 46.0541 30.8852 45.0771 29.9661C44.1002 29.047 42.8688 28.4985 41.5336 28.2352C40.1984 27.972 38.189 28.0455 36.8567 28.3852C35.5259 28.7264 34.5387 29.3485 33.5267 30.3308C32.5147 31.3117 32.0496 32.3161 31.7323 33.6735C31.4135 35.0293 31.3638 37.2543 31.4427 38.6764C31.5217 40.0985 31.8288 41.4852 32.7706 42.4882C33.7125 43.4896 34.1907 44.5955 35.7292 44.8073C37.2677 45.0205 37.6669 46.2073 38.0574 47.6132C38.4479 49.0191 39.7948 49.3911 40.8477 50.1014C41.9007 50.8132 44.0183 50.4852 45.0435 49.8529ZM43.2886 34.8529C43.5957 36.1588 43.5942 37.3779 43.2886 38.6764C43.0429 40.5705 41.9197 41.8205 40.0712 42.2058C39.3283 42.3602 38.7257 42.3735 38.0238 42.0588C36.7763 41.4985 35.9383 40.6411 35.6838 39.2646C35.2275 37.8514 35.172 36.4014 35.3913 34.8529C35.5829 33.4999 36.2513 31.9043 37.7313 31.4705C40.602 30.6308 42.9142 31.9588 43.2886 34.8529Z" stroke="#E2E6DD" stroke-width="0.3"/>
<path d="M97.2528 42.9412C97.3698 43.5941 97.8787 44.6926 98.569 45C100.507 45.6662 103.752 45.1191 105.725 44.9897C107.696 44.8603 109.039 43.2809 109.694 41.4809C110.349 39.6809 109.298 37.3573 107.49 36.6176C107.098 36.4573 106.708 36.347 106.32 36.1764C106.242 35.8044 106.721 35.9191 106.905 35.7353C108.663 34.8279 109.621 32.7882 108.853 30.9823C108.087 29.1764 106.077 28.1838 104.273 28.3823C102.468 28.5809 99.0706 27.5015 97.8041 29.0838C96.5391 30.6662 97.3888 33.675 97.2528 35.7353C97.1168 37.7956 97.1372 40.8073 97.2528 42.9412ZM104.565 31.4706C104.964 31.7809 105.087 31.9941 105.15 32.5C105.479 35.1691 103.619 34.3853 102.262 35.772C100.905 37.1588 103.092 37.8426 104.599 38.3485C106.105 38.8544 106.253 41.2559 104.565 42.0588C103.895 42.3779 102.502 42.5912 101.64 42.3529C100.34 41.9926 100.856 38.6162 100.909 37.3529C100.962 36.0897 100.413 32.8059 101.201 31.7647C101.264 31.6823 101.326 31.572 101.348 31.4706C101.539 30.6132 103.951 30.9926 104.565 31.4706Z" stroke="#E2E6DD" stroke-width="0.3"/>
<path d="M101.348 31.4706C101.472 31.35 101.627 31.3485 101.786 31.3235C102.27 31.1588 103.378 30.9838 103.834 31.3235C103.907 31.3235 103.98 31.3235 103.98 31.3235C104.142 31.3456 104.419 31.3985 104.565 31.4706C103.951 30.9926 101.539 30.6132 101.348 31.4706Z" stroke="#C2C1C9" stroke-width="0.3"/>
<path d="M101.786 31.3236C102.434 31.2236 103.177 31.3236 103.834 31.3236C103.378 30.9839 102.27 31.1589 101.786 31.3236Z" stroke="#9A94B1" stroke-width="0.3"/>
<path d="M37.7313 31.4706C37.6728 31.5059 37.4988 31.7117 37.4388 31.7647C36.924 32.2206 36.1109 32.9059 35.8301 33.5294C35.7599 33.75 35.7292 34.0294 35.6839 34.2647C35.3899 35.7912 35.4016 37.7367 35.6839 39.2647C35.9383 40.6412 36.7763 41.4985 38.0238 42.0588C38.6278 42.2309 39.419 42.2662 40.0712 42.2059C41.9198 41.8206 43.0429 40.5706 43.2886 38.6764C43.4539 37.4029 43.4539 36.1279 43.2886 34.8529C42.9142 31.9588 40.6021 30.6309 37.7313 31.4706Z" stroke="#786F9C" stroke-width="0.3"/>
<path d="M101.348 31.4706C101.326 31.572 101.264 31.6823 101.202 31.7647C101.221 33.1411 101.219 34.6029 101.202 36.1764C101.184 37.75 101.257 39.2353 101.202 40.8823C101.146 42.5294 103.344 42.4426 104.565 42.0588C106.253 41.2559 106.105 38.8544 104.599 38.3485C103.092 37.8426 100.905 37.1588 102.262 35.772C103.619 34.3853 105.479 35.1691 105.15 32.5C105.001 31.8206 104.425 31.7073 103.98 31.3235C103.98 31.3235 103.907 31.3235 103.834 31.3235C103.177 31.3235 102.434 31.2235 101.787 31.3235C101.627 31.3485 101.472 31.35 101.348 31.4706Z" stroke="#79709D" stroke-width="0.3"/>
<path d="M105.15 32.5C105.087 31.9941 104.964 31.7808 104.565 31.4705C104.419 31.3985 104.143 31.3455 103.98 31.3235C104.425 31.7073 105.001 31.8205 105.15 32.5Z" stroke="#9891B0" stroke-width="0.3"/>
<path d="M35.3914 34.8529C35.4338 34.7059 35.637 34.4073 35.6838 34.2647C35.7292 34.0294 35.7599 33.75 35.8301 33.5294C36.0875 32.7265 36.7807 32.1676 37.4388 31.7647C37.4987 31.7118 37.6728 31.5059 37.7313 31.4706C36.2513 31.9044 35.5829 33.5 35.3914 34.8529Z" stroke="#BFBEC8" stroke-width="0.3"/>
<path d="M35.8301 33.5294C36.1109 32.9058 36.924 32.2205 37.4388 31.7646C36.7807 32.1676 36.0875 32.7264 35.8301 33.5294Z" stroke="#958FAE" stroke-width="0.3"/>
<path d="M101.64 42.3529C100.611 41.9323 101.149 40.2499 101.055 39.2646C100.962 38.2794 101.083 36.5485 101.055 35.4411C101.027 34.3338 100.97 32.8426 101.201 31.7646C100.413 32.8058 100.962 36.0896 100.909 37.3529C100.856 38.6161 100.34 41.9926 101.64 42.3529Z" stroke="#C8C8CD" stroke-width="0.3"/>
<path d="M101.64 42.3529C102.502 42.5911 103.895 42.3779 104.565 42.0588C103.344 42.4426 101.146 42.5294 101.202 40.8823C101.257 39.2352 101.184 37.7499 101.202 36.1764C101.219 34.6029 101.221 33.1411 101.202 31.7646C100.97 32.8426 101.028 34.3338 101.055 35.4411C101.083 36.5485 100.962 38.2794 101.055 39.2646C101.149 40.2499 100.611 41.9323 101.64 42.3529Z" stroke="#8E86A9" stroke-width="0.3"/>
<path d="M59.9604 32.4999C58.8636 32.4382 57.9422 34.1235 58.0592 35.147C58.1762 36.1705 58.03 38.4514 58.0592 39.5588C58.087 40.6661 57.7346 42.0882 56.5983 42.5014C55.4619 42.9132 54.1209 42.3264 53.9615 41.0323C53.8006 39.7382 53.7187 37.9838 53.8181 36.6176C53.9176 35.2514 53.8693 33.9529 52.9041 33.1249C51.9404 32.2955 50.7923 32.8249 50.298 33.9602C49.8037 35.0941 50.2542 36.9691 50.162 38.2352C50.0699 39.5014 50.0596 41.4441 50.3448 42.6102C50.6285 43.7779 51.313 44.4735 52.3235 45.0323C53.3326 45.5926 54.9866 45.6146 56.1259 45.2617C57.2637 44.9073 57.8253 43.7529 58.6808 44.8161C59.5363 45.8794 61.8982 45.2779 61.7154 43.9705C61.5326 42.6632 61.7753 40.8205 61.7154 39.5588C61.6554 38.297 61.692 36.2264 61.7154 35.147C61.7388 34.0691 61.009 32.5588 59.9604 32.4999Z" stroke="#E2E6DD" stroke-width="0.3"/>
<path d="M78.826 42.5C78.3083 42.6206 77.8725 42.6132 77.3635 42.5C75.3688 42.4544 74.5527 39.875 74.8818 38.2397C75.2108 36.6029 77.131 34.8706 78.8626 35.9926C80.5956 37.1132 82.194 34.4161 80.3967 33.4206C78.6008 32.4235 76.3852 32.9338 74.6843 33.4823C72.9835 34.0309 71.951 35.2764 71.4128 36.9573C70.8747 38.6367 70.9726 40.9147 71.8179 42.4882C72.6618 44.0617 73.9721 44.9794 75.7534 45.2956C77.5361 45.6103 79.8073 45.4617 81.4584 44.7059C81.4379 43.9044 81.1893 43.0882 80.8369 42.3897C80.4844 41.6911 79.3188 42.3838 78.826 42.5Z" stroke="#E1E5DC" stroke-width="0.3"/>
<path d="M115.826 32.9412C115.137 32.6588 113.278 32.7706 112.572 33.0515C111.867 33.3338 112.214 35.1132 112.17 35.8823C112.126 36.6515 112.163 38.4279 112.17 39.2647C112.177 40.1015 112.098 41.775 112.17 42.5C112.242 43.225 111.803 45.1544 112.609 45.2941C113.414 45.4338 115.174 45.5456 115.928 45.25C116.682 44.9529 116.165 43.1279 116.265 42.3529C116.364 41.5779 116.255 39.8368 116.265 38.9706C116.275 38.1044 116.347 36.5323 116.265 35.7353C116.183 34.9382 116.679 33.2897 115.826 32.9412ZM112.462 44.8529C111.886 44.05 112.408 42.2265 112.316 41.1765C112.224 40.1265 112.202 38.4118 112.316 37.3529C112.43 36.2941 111.876 34.3456 112.462 33.5294C112.999 32.7823 116.219 32.7735 115.972 34.2647C115.725 35.7559 115.962 37.5779 115.972 39.1176C115.983 40.6573 115.697 42.4338 115.972 43.9706C116.247 45.5073 113.061 45.6868 112.462 44.8529Z" stroke="#9993B0" stroke-width="0.3"/>
<path d="M68.2965 33.0882C67.6881 32.772 65.8674 32.9455 65.1888 33.1985C64.5117 33.4529 64.8173 35.3014 64.7866 36.0294C64.7559 36.7573 64.7603 38.3073 64.7866 39.1176C64.8129 39.9279 64.6945 41.6235 64.7866 42.3529C64.8787 43.0823 64.3991 44.8823 65.1274 45.0985C65.8557 45.3147 67.5302 45.3808 68.2599 45.1103C68.9897 44.8397 68.4925 42.9308 68.589 42.2058C68.6855 41.4808 68.5978 39.9426 68.589 39.1176C68.5802 38.2926 68.6943 36.65 68.589 35.8823C68.4837 35.1147 69.016 33.4617 68.2965 33.0882Z" stroke="#E0E4DC" stroke-width="0.3"/>
<path d="M112.462 33.5294C112.01 34.447 112.569 36.1441 112.462 37.2058C112.356 38.2676 112.329 39.9603 112.462 41.0294C112.595 42.0985 112 43.9132 112.462 44.8529C113.06 45.6867 116.247 45.5073 115.972 43.9706C115.697 42.4338 115.982 40.6573 115.972 39.1176C115.962 37.5779 115.725 35.7558 115.972 34.2647C116.219 32.7735 112.999 32.7823 112.462 33.5294Z" stroke="#E3E7DE" stroke-width="0.3"/>
<path d="M112.462 44.8529C112 43.9132 112.595 42.0985 112.462 41.0294C112.329 39.9603 112.356 38.2677 112.462 37.2059C112.569 36.1441 112.01 34.4471 112.462 33.5294C111.876 34.3456 112.43 36.2941 112.316 37.3529C112.202 38.4118 112.224 40.1265 112.316 41.1765C112.408 42.2265 111.886 44.05 112.462 44.8529Z" stroke="#B3B1BF" stroke-width="0.3"/>
<path d="M150.047 38.5294C150.246 37.1323 150.194 35.4823 150.194 33.9706C150.058 35.3765 150.104 37.0147 150.047 38.5294Z" stroke="#ACA8BB" stroke-width="0.3"/>
<path d="M35.3913 34.8529C35.1719 36.4014 35.2275 37.8514 35.6838 39.2646C35.4015 37.7367 35.3898 35.7911 35.6838 34.2646C35.637 34.4073 35.4337 34.7058 35.3913 34.8529Z" stroke="#9B95B2" stroke-width="0.3"/>
<path d="M43.2886 38.6764C43.5942 37.3779 43.5957 36.1588 43.2886 34.8529C43.4538 36.1279 43.4538 37.4029 43.2886 38.6764Z" stroke="#AFACBE" stroke-width="0.3"/>
<path d="M107.49 36.6177C107.366 36.2559 106.903 36.2839 106.612 36.1765C106.691 36.0442 106.791 35.8456 106.905 35.7354C106.721 35.9192 106.242 35.8045 106.32 36.1765C106.707 36.3471 107.098 36.4574 107.49 36.6177Z" stroke="#AAA6BA" stroke-width="0.3"/>
<path d="M126.209 35.7353C124.608 35.4015 122.931 36.2044 122.552 37.7927C122.173 39.3809 122.375 41.2015 123.615 42.1677C124.854 43.1353 127.192 41.9956 127.087 40.5883C126.982 39.1809 127.805 36.0677 126.209 35.7353Z" stroke="#7A719D" stroke-width="0.3"/>
<path d="M40.0711 42.2059C39.4189 42.2662 38.6277 42.2309 38.0237 42.0588C38.7257 42.3735 39.3282 42.3603 40.0711 42.2059Z" stroke="#ADA9BC" stroke-width="0.3"/>
<path d="M149.462 43.2352C149.522 42.922 149.731 42.6411 149.755 42.2058C149.696 42.4926 149.48 42.7823 149.462 43.2352Z" stroke="#ADA9BC" stroke-width="0.3"/>
<path d="M78.826 42.5C78.3755 42.55 77.8154 42.5471 77.3635 42.5C77.8725 42.6132 78.3083 42.6206 78.826 42.5Z" stroke="#A9A5BB" stroke-width="0.3"/>
<path d="M98.5691 45C97.8789 44.6926 97.3699 43.5941 97.2529 42.9412C97.3041 43.8779 97.6624 44.6882 98.5691 45Z" stroke="#ABA7BB" stroke-width="0.3"/>
<path d="M149.316 46.0293C149.35 45.6823 149.462 45.1617 149.462 44.7058C149.429 45.0529 149.316 45.5735 149.316 46.0293Z" stroke="#B0ACBE" stroke-width="0.3"/>
<path d="M136.447 58.6764C137.07 58.6264 137.587 58.4911 138.055 58.3823C137.453 58.4191 136.957 58.55 136.447 58.6764Z" stroke="#AEAABD" stroke-width="0.3"/>
<path d="M87.6006 59.7059C88.9972 59.7059 90.29 59.5589 91.6954 59.5589C96.9954 59.5589 102.424 59.4118 107.782 59.4118C104.568 59.0986 100.872 59.2295 97.5452 59.2648C94.2182 59.3001 90.7258 59.1001 87.6006 59.7059Z" stroke="#9791AF" stroke-width="0.3"/>
<path d="M72.9763 59.7058C77.0595 59.7058 81.0827 59.7058 85.1146 59.7058C83.2676 59.3279 81.0227 59.4764 78.9724 59.4117C76.922 59.347 74.8717 59.522 72.9763 59.7058Z" stroke="#948DAD" stroke-width="0.3"/>
<path d="M91.6956 59.5588C90.2902 59.5588 88.9974 59.7059 87.6008 59.7059C86.7715 59.7059 85.9438 59.7059 85.1146 59.7059C81.0826 59.7059 77.0594 59.7059 72.9763 59.7059C71.0912 59.7059 69.0949 59.8427 67.2727 59.5588C69.696 60.2735 72.6297 59.6985 75.3162 59.853C78.0027 60.0074 80.9495 59.7294 83.6521 59.853C86.3547 59.9765 89.1539 59.8059 91.6956 59.5588Z" stroke="#CCCCCF" stroke-width="0.3"/>
<path d="M128.403 18.0882C125.235 18.3044 122.077 18.2353 118.897 18.2353C111.507 18.2353 104.223 19.4118 96.8142 19.4118C93.4462 20.0647 89.7141 19.6 86.1384 19.7059C82.5627 19.8118 78.7574 19.6515 75.17 19.7059C71.5826 19.7603 67.925 19.7456 64.4941 19.4118C60.4855 19.4118 56.4609 19.5588 52.502 19.5588C50.6608 19.7382 48.5871 19.5735 46.6522 19.7059C44.7964 19.9103 42.8104 19.8471 40.9487 20C39.087 20.1529 37.1215 20.2485 35.2554 20.3044C33.3908 20.3603 31.6022 20.7176 29.7858 20.8338C27.9695 20.95 26.1721 21.2618 24.423 21.4706C22.6739 21.6794 21.036 22.125 19.3044 22.2059C17.5729 22.2868 15.8165 22.7441 14.2195 23.1221C12.6225 23.5 11.3604 25.0985 11.9951 26.6147C12.6313 28.1294 12.972 29.4324 13.9957 30.6324C15.0195 31.8338 14.7796 34.1426 16.3795 33.8235C17.0493 35.2794 19.7753 34.8162 18.8335 36.7323C17.8917 38.6485 19.4682 39.8265 19.7432 41.4706C19.009 41.7103 18.0818 41.8073 17.355 42.0103C16.6296 42.2147 15.9496 42.425 15.4655 43.0515C14.9829 43.6794 15.1057 44.7632 13.8934 44.4118C12.681 44.0603 12.9954 45.4691 12.621 46.0735C12.2481 46.6794 11.7304 47.6279 12.5772 48.0882C12.1706 48.8132 12.1311 49.9985 12.5889 50.7235C13.0452 51.45 12.7585 52.5897 13.6009 52.9412C12.6649 54.2882 13.2484 54.9147 14.5222 55.3971C15.7975 55.8794 16.5331 56.3029 17.8303 56.6294C19.1289 56.9544 20.1848 57.3015 21.5464 57.4515C22.9079 57.6015 24.328 57.7088 25.7392 57.7941C27.149 57.8794 28.6583 57.9941 30.1266 57.9412C31.5949 57.8882 33.2006 57.9647 34.6602 57.9412C36.1197 57.9176 37.6728 57.8853 39.0475 58.0882C40.4222 58.2912 41.8291 58.1926 43.1321 58.5397C44.4352 58.8868 45.5013 58.8765 46.6522 58.2353C46.2983 59.5323 47.6043 58.85 48.2244 59.4485C48.8459 60.0456 49.681 59.5338 49.5771 58.6765C50.3361 58.9618 50.769 58.0838 50.0159 57.7941C51.1039 56.4971 51.142 59.5853 52.2095 59.7059C51.7489 58.8853 53.9616 57.1647 54.2087 58.725C54.4559 60.2853 55.5688 58.9956 56.7417 59.1191C57.916 59.2412 59.2001 59.6721 60.3993 59.7059C61.5985 59.7397 62.6719 58.9265 63.8112 59.5103C64.9504 60.0941 66.2008 59.3926 67.2728 59.5588C69.095 59.8426 71.0912 59.7059 72.9763 59.7059C74.8717 59.5221 76.922 59.3471 78.9724 59.4118C81.0227 59.4765 83.2676 59.3279 85.1147 59.7059C85.9439 59.7059 86.7716 59.7059 87.6008 59.7059C90.7261 59.1 94.2184 59.3 97.5455 59.2647C100.873 59.2294 104.568 59.0985 107.783 59.4118C117.408 59.4118 127.052 59.4265 136.447 58.6765C136.957 58.55 137.453 58.4191 138.055 58.3823C140.389 58.2426 142.652 57.6191 144.929 57.3529C147.204 57.0853 148.133 55.3794 148.763 53.2676C149.394 51.1573 149.316 48.3632 149.316 46.0294C149.316 45.5735 149.429 45.0529 149.462 44.7059C149.462 44.2176 149.443 43.7235 149.462 43.2353C149.48 42.7823 149.696 42.4926 149.755 42.2059C149.822 40.9618 150.001 39.7632 150.047 38.5294C150.104 37.0147 150.058 35.3765 150.194 33.9706C150.194 28.6323 150.793 22.2382 145.379 19.5471C139.964 16.8559 134.314 17.6838 128.403 18.0882ZM67.1265 26.9118C67.8329 27.1397 67.8534 28.1353 68.6255 28.4926C69.3962 28.85 68.7835 30.0147 68.1868 30.3309C67.5901 30.6471 67.1221 31.9779 66.3631 31.5029C65.6027 31.0279 65.5924 30.4632 64.8232 29.9632C64.0539 29.4632 64.4517 28.5647 65.1157 28.125C65.7781 27.6853 66.1642 26.6015 67.1265 26.9118ZM87.1621 37.7941C88.1668 37.8103 89.7696 37.825 90.0753 36.6059C90.3795 35.3868 90.2859 34.4603 91.2935 33.5662C92.2997 32.6721 92.813 33.1279 93.6334 34.0809C94.4539 35.0338 93.9844 36.4191 93.5501 37.4529C93.1157 38.4868 91.8054 38.8971 91.1107 39.2647C91.9838 39.8176 92.8934 40.375 93.417 41.3573C93.9405 42.3397 94.6688 43.1882 94.7566 44.4221C94.8429 45.6559 92.0145 44.9985 91.1107 45.1471C90.5374 43.2235 89.6322 40.3323 87.1621 40.2941C86.9778 41.3044 87.459 43.9397 87.048 44.7382C86.6385 45.5368 83.5996 45.6941 83.5074 44.5573C83.4153 43.4221 83.5659 41.3353 83.506 40C83.446 38.6647 83.5747 36.8515 83.506 35.4412C83.4372 34.0309 83.6288 32.1294 83.506 30.7353C83.3831 29.3412 83.4752 28.0206 84.5662 27.2426C85.6572 26.4632 86.8155 27.3426 87.1299 28.5618C87.4443 29.7823 87.0275 31.7044 87.1621 33.0882C87.2966 34.4721 87.0612 36.3647 87.1621 37.7941ZM114.51 26.9118C115.055 27.0397 116.711 28.7735 116.509 29.3632C116.306 29.9544 114.627 31.7353 113.973 31.4221C113.319 31.1088 111.72 29.7456 111.927 29.0176C112.133 28.2897 113.739 26.7323 114.51 26.9118ZM127.087 32.9412C127.208 31.4015 126.748 29.3515 127.489 28.0515C128.232 26.7529 129.778 26.6044 130.487 28.0515C131.195 29.5 130.553 31.3706 130.743 33.0882C130.933 34.8059 130.573 36.5162 130.743 38.3823C130.913 40.2485 130.481 41.5941 130.743 43.6765C131.005 45.7588 128.504 45.1721 127.537 44.4C126.572 43.6279 125.31 45.8485 123.87 45.4412C122.429 45.0338 121.078 45.2882 120.104 43.9338C119.13 42.5794 118.807 41.6956 118.637 40.1147C118.467 38.5323 118.755 36.9956 119.449 35.7015C120.142 34.4074 120.994 33.7721 122.362 33.3368C123.731 32.9029 125.603 32.625 127.087 32.9412ZM45.0435 49.8529C44.0184 50.4853 41.9007 50.8132 40.8478 50.1015C39.7948 49.3912 38.4479 49.0191 38.0574 47.6132C37.667 46.2073 37.2677 45.0206 35.7292 44.8073C34.1907 44.5956 33.7125 43.4897 32.7707 42.4882C31.8289 41.4853 31.5217 40.0985 31.4428 38.6765C31.3638 37.2544 31.4135 35.0294 31.7323 33.6735C32.0497 32.3162 32.5147 31.3118 33.5268 30.3309C34.5388 29.3485 35.5259 28.7265 36.8568 28.3853C38.189 28.0456 40.1985 27.9721 41.5337 28.2353C42.8689 28.4985 44.1003 29.0471 45.0772 29.9662C46.0541 30.8853 46.7093 31.8206 47.0866 33.0926C47.4654 34.3647 47.5356 36.4941 47.3864 37.7971C47.2387 39.1015 47.0939 40.8691 46.3144 41.8676C45.5364 42.8647 44.9733 44.2118 43.625 44.4573C42.2781 44.7015 41.0028 46.2471 42.7153 46.9C44.4279 47.5544 45.1006 47.9221 45.0435 49.8529ZM106.905 35.7353C106.791 35.8456 106.692 36.0441 106.613 36.1765C106.904 36.2838 107.366 36.2559 107.49 36.6176C109.298 37.3573 110.349 39.6809 109.694 41.4809C109.039 43.2809 107.696 44.8603 105.725 44.9897C103.752 45.1191 100.507 45.6662 98.5692 45C97.6625 44.6882 97.3042 43.8779 97.253 42.9412C97.1374 40.8073 97.117 37.7956 97.253 35.7353C97.389 33.675 96.5393 30.6662 97.8043 29.0838C99.0708 27.5015 102.468 28.5809 104.273 28.3823C106.077 28.1838 108.087 29.1765 108.853 30.9823C109.621 32.7882 108.663 34.8279 106.905 35.7353ZM59.9605 32.5C61.0091 32.5588 61.7389 34.0691 61.7155 35.1471C61.6921 36.2265 61.6555 38.2971 61.7155 39.5588C61.7754 40.8206 61.5327 42.6632 61.7155 43.9706C61.8983 45.2779 59.5364 45.8794 58.6809 44.8162C57.8253 43.7529 57.2638 44.9073 56.126 45.2618C54.9867 45.6147 53.3327 45.5926 52.3236 45.0323C51.3131 44.4735 50.6286 43.7779 50.3449 42.6103C50.0597 41.4441 50.07 39.5015 50.1621 38.2353C50.2543 36.9691 49.8038 35.0941 50.2981 33.9603C50.7924 32.825 51.9405 32.2956 52.9042 33.125C53.8694 33.9529 53.9177 35.2515 53.8182 36.6176C53.7188 37.9838 53.8007 39.7382 53.9616 41.0323C54.121 42.3265 55.462 42.9132 56.5984 42.5015C57.7347 42.0882 58.0871 40.6662 58.0593 39.5588C58.0301 38.4515 58.1763 36.1706 58.0593 35.1471C57.9423 34.1235 58.8637 32.4382 59.9605 32.5ZM77.3637 42.5C77.8156 42.5471 78.3757 42.55 78.8261 42.5C79.319 42.3838 80.4845 41.6912 80.837 42.3897C81.1894 43.0882 81.4381 43.9044 81.4585 44.7059C79.8074 45.4618 77.5362 45.6103 75.7535 45.2956C73.9722 44.9794 72.6619 44.0618 71.8181 42.4882C70.9728 40.9147 70.8748 38.6368 71.413 36.9573C71.9511 35.2765 72.9836 34.0309 74.6845 33.4823C76.3853 32.9338 78.6009 32.4235 80.3968 33.4206C82.1941 34.4162 80.5957 37.1132 78.8627 35.9926C77.1311 34.8706 75.2109 36.6029 74.8819 38.2397C74.5528 39.875 75.3689 42.4544 77.3637 42.5ZM115.826 32.9412C116.679 33.2897 116.183 34.9382 116.265 35.7353C116.347 36.5323 116.275 38.1044 116.265 38.9706C116.255 39.8368 116.364 41.5779 116.265 42.3529C116.165 43.1279 116.682 44.9529 115.928 45.25C115.174 45.5456 113.415 45.4338 112.609 45.2941C111.803 45.1544 112.242 43.225 112.17 42.5C112.098 41.775 112.177 40.1015 112.17 39.2647C112.163 38.4279 112.126 36.6515 112.17 35.8823C112.214 35.1132 111.867 33.3338 112.572 33.0515C113.279 32.7706 115.137 32.6588 115.826 32.9412ZM68.2965 33.0882C69.016 33.4618 68.4837 35.1147 68.589 35.8823C68.6943 36.65 68.5802 38.2926 68.589 39.1176C68.5977 39.9426 68.6855 41.4809 68.589 42.2059C68.4925 42.9309 68.9897 44.8397 68.2599 45.1103C67.5302 45.3809 65.8557 45.3147 65.1274 45.0985C64.3991 44.8823 64.8787 43.0823 64.7866 42.3529C64.6945 41.6235 64.8129 39.9279 64.7866 39.1176C64.7603 38.3073 64.7559 36.7573 64.7866 36.0294C64.8173 35.3015 64.5117 33.4529 65.1888 33.1985C65.8674 32.9456 67.6881 32.7721 68.2965 33.0882Z" fill="#776E9C"/>
<path d="M118.897 18.2353C122.077 18.2353 125.235 18.3044 128.403 18.0882C125.352 18 121.91 17.8029 118.897 18.2353Z" fill="#C9C8CD"/>
<path d="M49.5771 19.5588C50.5526 19.5588 51.5266 19.5588 52.502 19.5588C56.4609 19.5588 60.4856 19.4118 64.4941 19.4118C67.9557 19.4118 71.4159 19.4118 74.8775 19.4118C70.8075 19.0162 66.3456 19.3456 62.1542 19.2647C57.9628 19.1838 53.5989 19.1677 49.5771 19.5588Z" fill="#CBCBCF"/>
<path d="M96.814 19.4117C89.5266 19.4117 82.1998 19.4117 74.8773 19.4117C71.4157 19.4117 67.9555 19.4117 64.4939 19.4117C67.9248 19.7456 71.5824 19.7603 75.1698 19.7059C78.7572 19.6514 82.5625 19.8117 86.1381 19.7059C89.7138 19.6 93.446 20.0647 96.814 19.4117Z" fill="#9791AF"/>
<path d="M46.6521 19.7058C48.5869 19.5735 50.6607 19.7382 52.5019 19.5588C51.5264 19.5588 50.5525 19.5588 49.577 19.5588C48.5928 19.5588 47.5369 19.547 46.6521 19.7058Z" fill="#9F9AB4"/>
<path d="M101.348 31.4706C101.472 31.35 101.627 31.3485 101.786 31.3235C102.27 31.1588 103.378 30.9838 103.834 31.3235C103.907 31.3235 103.98 31.3235 103.98 31.3235C104.142 31.3456 104.419 31.3985 104.565 31.4706C103.951 30.9926 101.539 30.6132 101.348 31.4706Z" fill="#C2C1C9"/>
<path d="M101.786 31.3236C102.434 31.2236 103.177 31.3236 103.834 31.3236C103.378 30.9839 102.27 31.1589 101.786 31.3236Z" fill="#9A94B1"/>
<path d="M37.7313 31.4706C37.6728 31.5059 37.4988 31.7117 37.4388 31.7647C36.924 32.2206 36.1109 32.9059 35.8301 33.5294C35.7599 33.75 35.7292 34.0294 35.6839 34.2647C35.3899 35.7912 35.4016 37.7367 35.6839 39.2647C35.9383 40.6412 36.7763 41.4985 38.0238 42.0588C38.6278 42.2309 39.419 42.2662 40.0712 42.2059C41.9198 41.8206 43.0429 40.5706 43.2886 38.6764C43.4539 37.4029 43.4539 36.1279 43.2886 34.8529C42.9142 31.9588 40.6021 30.6309 37.7313 31.4706Z" fill="#786F9C"/>
<path d="M101.348 31.4706C101.326 31.572 101.264 31.6823 101.202 31.7647C101.221 33.1411 101.219 34.6029 101.202 36.1764C101.184 37.75 101.257 39.2353 101.202 40.8823C101.146 42.5294 103.344 42.4426 104.565 42.0588C106.253 41.2559 106.105 38.8544 104.599 38.3485C103.092 37.8426 100.905 37.1588 102.262 35.772C103.619 34.3853 105.479 35.1691 105.15 32.5C105.001 31.8206 104.425 31.7073 103.98 31.3235C103.98 31.3235 103.907 31.3235 103.834 31.3235C103.177 31.3235 102.434 31.2235 101.787 31.3235C101.627 31.3485 101.472 31.35 101.348 31.4706Z" fill="#79709D"/>
<path d="M105.15 32.5C105.087 31.9941 104.964 31.7808 104.565 31.4705C104.419 31.3985 104.143 31.3455 103.98 31.3235C104.425 31.7073 105.001 31.8205 105.15 32.5Z" fill="#9891B0"/>
<path d="M35.3914 34.8529C35.4338 34.7059 35.637 34.4073 35.6838 34.2647C35.7292 34.0294 35.7599 33.75 35.8301 33.5294C36.0875 32.7265 36.7807 32.1676 37.4388 31.7647C37.4987 31.7118 37.6728 31.5059 37.7313 31.4706C36.2513 31.9044 35.5829 33.5 35.3914 34.8529Z" fill="#BFBEC8"/>
<path d="M35.8301 33.5294C36.1109 32.9058 36.924 32.2205 37.4388 31.7646C36.7807 32.1676 36.0875 32.7264 35.8301 33.5294Z" fill="#958FAE"/>
<path d="M101.64 42.3529C100.611 41.9323 101.149 40.2499 101.055 39.2646C100.962 38.2794 101.083 36.5485 101.055 35.4411C101.027 34.3338 100.97 32.8426 101.201 31.7646C100.413 32.8058 100.962 36.0896 100.909 37.3529C100.856 38.6161 100.34 41.9926 101.64 42.3529Z" fill="#C8C8CD"/>
<path d="M101.64 42.3529C102.502 42.5911 103.895 42.3779 104.565 42.0588C103.344 42.4426 101.146 42.5294 101.202 40.8823C101.257 39.2352 101.184 37.7499 101.202 36.1764C101.219 34.6029 101.221 33.1411 101.202 31.7646C100.97 32.8426 101.028 34.3338 101.055 35.4411C101.083 36.5485 100.962 38.2794 101.055 39.2646C101.149 40.2499 100.611 41.9323 101.64 42.3529Z" fill="#8E86A9"/>
<path d="M115.826 32.9412C115.137 32.6588 113.278 32.7706 112.572 33.0515C111.867 33.3338 112.214 35.1132 112.17 35.8823C112.126 36.6515 112.163 38.4279 112.17 39.2647C112.177 40.1015 112.098 41.775 112.17 42.5C112.242 43.225 111.803 45.1544 112.609 45.2941C113.414 45.4338 115.174 45.5456 115.928 45.25C116.682 44.9529 116.165 43.1279 116.265 42.3529C116.364 41.5779 116.255 39.8368 116.265 38.9706C116.275 38.1044 116.347 36.5323 116.265 35.7353C116.183 34.9382 116.679 33.2897 115.826 32.9412ZM112.462 44.8529C111.886 44.05 112.408 42.2265 112.316 41.1765C112.224 40.1265 112.202 38.4118 112.316 37.3529C112.43 36.2941 111.876 34.3456 112.462 33.5294C112.999 32.7823 116.219 32.7735 115.972 34.2647C115.725 35.7559 115.962 37.5779 115.972 39.1176C115.983 40.6573 115.697 42.4338 115.972 43.9706C116.247 45.5073 113.061 45.6868 112.462 44.8529Z" fill="#9993B0"/>
<path d="M112.462 44.8529C112 43.9132 112.595 42.0985 112.462 41.0294C112.329 39.9603 112.356 38.2677 112.462 37.2059C112.569 36.1441 112.01 34.4471 112.462 33.5294C111.876 34.3456 112.43 36.2941 112.316 37.3529C112.202 38.4118 112.224 40.1265 112.316 41.1765C112.408 42.2265 111.886 44.05 112.462 44.8529Z" fill="#B3B1BF"/>
<path d="M150.047 38.5294C150.246 37.1323 150.194 35.4823 150.194 33.9706C150.058 35.3765 150.104 37.0147 150.047 38.5294Z" fill="#ACA8BB"/>
<path d="M35.3913 34.8529C35.1719 36.4014 35.2275 37.8514 35.6838 39.2646C35.4015 37.7367 35.3898 35.7911 35.6838 34.2646C35.637 34.4073 35.4337 34.7058 35.3913 34.8529Z" fill="#9B95B2"/>
<path d="M43.2886 38.6764C43.5942 37.3779 43.5957 36.1588 43.2886 34.8529C43.4538 36.1279 43.4538 37.4029 43.2886 38.6764Z" fill="#AFACBE"/>
<path d="M107.49 36.6177C107.366 36.2559 106.903 36.2839 106.612 36.1765C106.691 36.0442 106.791 35.8456 106.905 35.7354C106.721 35.9192 106.242 35.8045 106.32 36.1765C106.707 36.3471 107.098 36.4574 107.49 36.6177Z" fill="#AAA6BA"/>
<path d="M126.209 35.7353C124.608 35.4015 122.931 36.2044 122.552 37.7927C122.173 39.3809 122.375 41.2015 123.615 42.1677C124.854 43.1353 127.192 41.9956 127.087 40.5883C126.982 39.1809 127.805 36.0677 126.209 35.7353Z" fill="#7A719D"/>
<path d="M40.0711 42.2059C39.4189 42.2662 38.6277 42.2309 38.0237 42.0588C38.7257 42.3735 39.3282 42.3603 40.0711 42.2059Z" fill="#ADA9BC"/>
<path d="M149.462 43.2352C149.522 42.922 149.731 42.6411 149.755 42.2058C149.696 42.4926 149.48 42.7823 149.462 43.2352Z" fill="#ADA9BC"/>
<path d="M78.826 42.5C78.3755 42.55 77.8154 42.5471 77.3635 42.5C77.8725 42.6132 78.3083 42.6206 78.826 42.5Z" fill="#A9A5BB"/>
<path d="M98.5691 45C97.8789 44.6926 97.3699 43.5941 97.2529 42.9412C97.3041 43.8779 97.6624 44.6882 98.5691 45Z" fill="#ABA7BB"/>
<path d="M149.316 46.0293C149.35 45.6823 149.462 45.1617 149.462 44.7058C149.429 45.0529 149.316 45.5735 149.316 46.0293Z" fill="#B0ACBE"/>
<path d="M136.447 58.6764C137.07 58.6264 137.587 58.4911 138.055 58.3823C137.453 58.4191 136.957 58.55 136.447 58.6764Z" fill="#AEAABD"/>
<path d="M87.6006 59.7059C88.9972 59.7059 90.29 59.5589 91.6954 59.5589C96.9954 59.5589 102.424 59.4118 107.782 59.4118C104.568 59.0986 100.872 59.2295 97.5452 59.2648C94.2182 59.3001 90.7258 59.1001 87.6006 59.7059Z" fill="#9791AF"/>
<path d="M72.9763 59.7058C77.0595 59.7058 81.0827 59.7058 85.1146 59.7058C83.2676 59.3279 81.0227 59.4764 78.9724 59.4117C76.922 59.347 74.8717 59.522 72.9763 59.7058Z" fill="#948DAD"/>
<path d="M91.6956 59.5588C90.2902 59.5588 88.9974 59.7059 87.6008 59.7059C86.7715 59.7059 85.9438 59.7059 85.1146 59.7059C81.0826 59.7059 77.0594 59.7059 72.9763 59.7059C71.0912 59.7059 69.0949 59.8427 67.2727 59.5588C69.696 60.2735 72.6297 59.6985 75.3162 59.853C78.0027 60.0074 80.9495 59.7294 83.6521 59.853C86.3547 59.9765 89.1539 59.8059 91.6956 59.5588Z" fill="#CCCCCF"/>
</g>
<defs>
<clipPath id="clip0_36_42021">
<rect width="160.577" height="75" fill="white"/>
</clipPath>
</defs>
</svg>
