<svg width="140" height="43" viewBox="0 0 140 43" fill="none" xmlns="http://www.w3.org/2000/svg">
<path d="M117.403 1.08823C114.235 1.30441 111.076 1.23529 107.897 1.23529C100.507 1.23529 93.2229 2.41176 85.8141 2.41176C82.4461 3.0647 78.7139 2.6 75.1382 2.70588C71.5626 2.81176 67.7573 2.65147 64.1699 2.70588C60.5825 2.76029 56.9249 2.74559 53.494 2.41176C49.4854 2.41176 45.4608 2.55882 41.5019 2.55882C39.6607 2.73823 37.5869 2.57353 35.6521 2.70588C33.7963 2.91029 31.8103 2.84706 29.9486 3C28.0869 3.15294 26.1213 3.24853 24.2553 3.30441C22.3906 3.36029 20.6021 3.71764 18.7857 3.83382C16.9693 3.95 15.172 4.26176 13.4229 4.47059C11.6738 4.67941 10.0359 5.125 8.30432 5.20588C6.57278 5.28676 4.81638 5.74411 3.21938 6.12206C1.62239 6.5 0.360294 8.09853 0.994997 9.6147C1.63116 11.1294 1.97191 12.4324 2.99563 13.6323C4.01934 14.8338 3.7795 17.1426 5.37942 16.8235C6.04922 18.2794 8.77523 17.8162 7.83341 19.7323C6.89159 21.6485 8.46811 22.8265 8.74305 24.4706C8.0089 24.7103 7.08171 24.8073 6.35487 25.0103C5.6295 25.2147 4.94946 25.425 4.46539 26.0515C3.98278 26.6794 4.10563 27.7632 2.89326 27.4118C1.68089 27.0603 1.99531 28.4691 1.62093 29.0735C1.248 29.6794 0.730294 30.6279 1.57705 31.0882C1.17049 31.8132 1.13101 32.9985 1.58875 33.7235C2.04504 34.45 1.7584 35.5897 2.60077 35.9412C1.6648 37.2882 2.24832 37.9147 3.52211 38.3971C4.79737 38.8794 5.53298 39.3029 6.83017 39.6294C8.12882 39.9544 9.18471 40.3015 10.5463 40.4515C11.9078 40.6015 13.3278 40.7088 14.7391 40.7941C16.1489 40.8794 17.6581 40.9941 19.1264 40.9412C20.5947 40.8882 22.2005 40.9647 23.66 40.9412C25.1196 40.9176 26.6727 40.8853 28.0474 41.0882C29.4221 41.2912 30.829 41.1926 32.132 41.5397C33.435 41.8868 34.5012 41.8765 35.6521 41.2353C35.2982 42.5323 36.6042 41.85 37.2243 42.4485C37.8458 43.0456 38.6808 42.5338 38.577 41.6765C39.336 41.9618 39.7689 41.0838 39.0157 40.7941C40.1038 39.4971 40.1418 42.5853 41.2094 42.7059C40.7488 41.8853 42.9614 40.1647 43.2086 41.725C43.4557 43.2853 44.5687 41.9956 45.7416 42.1191C46.9159 42.2412 48.1999 42.6721 49.3991 42.7059C50.5983 42.7397 51.6718 41.9265 52.811 42.5103C53.9503 43.0941 55.2007 42.3926 56.2726 42.5588C58.0949 42.8426 60.0911 42.7059 61.9762 42.7059C63.8715 42.5221 65.9219 42.3471 67.9722 42.4118C70.0226 42.4765 72.2675 42.3279 74.1145 42.7059C74.9437 42.7059 75.7715 42.7059 76.6007 42.7059C79.7259 42.1 83.2183 42.3 86.5453 42.2647C89.8724 42.2294 93.568 42.0985 96.7825 42.4118C106.408 42.4118 116.052 42.4265 125.446 41.6765C125.957 41.55 126.453 41.4191 127.055 41.3823C129.389 41.2426 131.652 40.6191 133.929 40.3529C136.204 40.0853 137.133 38.3794 137.763 36.2676C138.394 34.1573 138.316 31.3632 138.316 29.0294C138.316 28.5735 138.429 28.0529 138.462 27.7059C138.462 27.2176 138.443 26.7235 138.462 26.2353C138.48 25.7823 138.696 25.4926 138.755 25.2059C138.822 23.9618 139 22.7632 139.047 21.5294C139.104 20.0147 139.058 18.3765 139.194 16.9706C139.194 11.6323 139.793 5.23823 134.379 2.54706C128.964 -0.14412 123.314 0.683821 117.403 1.08823ZM56.1264 9.91176C56.8328 10.1397 56.8532 11.1353 57.6254 11.4926C58.3961 11.85 57.7834 13.0147 57.1867 13.3309C56.59 13.6471 56.122 14.9779 55.363 14.5029C54.6025 14.0279 54.5923 13.4632 53.823 12.9632C53.0538 12.4632 53.4516 11.5647 54.1155 11.125C54.778 10.6853 55.1641 9.60147 56.1264 9.91176ZM76.162 20.7941C77.1667 20.8103 78.7695 20.825 79.0752 19.6059C79.3793 18.3868 79.2858 17.4603 80.2934 16.5662C81.2995 15.6721 81.8129 16.1279 82.6333 17.0809C83.4537 18.0338 82.9843 19.4191 82.5499 20.4529C82.1156 21.4868 80.8052 21.8971 80.1106 22.2647C80.9837 22.8176 81.8933 23.375 82.4169 24.3573C82.9404 25.3397 83.6687 26.1882 83.7565 27.4221C83.8427 28.6559 81.0144 27.9985 80.1106 28.1471C79.5373 26.2235 78.632 23.3323 76.162 23.2941C75.9777 24.3044 76.4588 26.9397 76.0479 27.7382C75.6384 28.5368 72.5994 28.6941 72.5073 27.5573C72.4152 26.4221 72.5658 24.3353 72.5058 23C72.4459 21.6647 72.5746 19.8515 72.5058 18.4412C72.4371 17.0309 72.6287 15.1294 72.5058 13.7353C72.383 12.3412 72.4751 11.0206 73.5661 10.2426C74.6571 9.46323 75.8154 10.3426 76.1298 11.5618C76.4442 12.7824 76.0274 14.7044 76.162 16.0882C76.2965 17.4721 76.0611 19.3647 76.162 20.7941ZM103.51 9.91176C104.055 10.0397 105.711 11.7735 105.509 12.3632C105.306 12.9544 103.627 14.7353 102.973 14.4221C102.319 14.1088 100.719 12.7456 100.927 12.0176C101.133 11.2897 102.739 9.73235 103.51 9.91176ZM116.087 15.9412C116.208 14.4015 115.748 12.3515 116.489 11.0515C117.232 9.75294 118.778 9.60441 119.487 11.0515C120.195 12.5 119.553 14.3706 119.743 16.0882C119.933 17.8059 119.573 19.5162 119.743 21.3823C119.913 23.2485 119.481 24.5941 119.743 26.6765C120.005 28.7588 117.504 28.1721 116.537 27.4C115.572 26.6279 114.31 28.8485 112.869 28.4412C111.429 28.0338 110.078 28.2882 109.104 26.9338C108.13 25.5794 107.806 24.6956 107.637 23.1147C107.467 21.5323 107.755 19.9956 108.448 18.7015C109.142 17.4073 109.994 16.7721 111.362 16.3368C112.731 15.9029 114.602 15.625 116.087 15.9412ZM34.0434 32.8529C33.0182 33.4853 30.9006 33.8132 29.8477 33.1015C28.7947 32.3912 27.4478 32.0191 27.0573 30.6132C26.6668 29.2073 26.2676 28.0206 24.7291 27.8073C23.1906 27.5956 22.7124 26.4897 21.7706 25.4882C20.8287 24.4853 20.5216 23.0985 20.4426 21.6765C20.3637 20.2544 20.4134 18.0294 20.7322 16.6735C21.0496 15.3162 21.5146 14.3118 22.5266 13.3309C23.5387 12.3485 24.5258 11.7265 25.8566 11.3853C27.1889 11.0456 29.1983 10.9721 30.5335 11.2353C31.8688 11.4985 33.1001 12.0471 34.0771 12.9662C35.054 13.8853 35.7092 14.8206 36.0865 16.0926C36.4652 17.3647 36.5354 19.4941 36.3863 20.7971C36.2386 22.1015 36.0938 23.8691 35.3143 24.8676C34.5363 25.8647 33.9732 27.2118 32.6248 27.4573C31.2779 27.7015 30.0027 29.2471 31.7152 29.9C33.4277 30.5544 34.1005 30.9221 34.0434 32.8529ZM95.905 18.7353C95.791 18.8456 95.6915 19.0441 95.6125 19.1765C95.9036 19.2838 96.3657 19.2559 96.49 19.6176C98.2976 20.3573 99.3491 22.6809 98.6939 24.4809C98.0387 26.2809 96.6962 27.8603 94.7248 27.9897C92.752 28.1191 89.5068 28.6662 87.5691 28C86.6623 27.6882 86.304 26.8779 86.2529 25.9412C86.1373 23.8073 86.1169 20.7956 86.2529 18.7353C86.3889 16.675 85.5392 13.6662 86.8042 12.0838C88.0707 10.5015 91.468 11.5809 93.2726 11.3823C95.0773 11.1838 97.0867 12.1765 97.853 13.9823C98.6208 15.7882 97.6629 17.8279 95.905 18.7353ZM48.9604 15.5C50.009 15.5588 50.7387 17.0691 50.7153 18.1471C50.6919 19.2265 50.6554 21.2971 50.7153 22.5588C50.7753 23.8206 50.5325 25.6632 50.7153 26.9706C50.8981 28.2779 48.5363 28.8794 47.6808 27.8162C46.8252 26.7529 46.2636 27.9073 45.1259 28.2618C43.9866 28.6147 42.3326 28.5926 41.3235 28.0323C40.3129 27.4735 39.6285 26.7779 39.3448 25.6103C39.0596 24.4441 39.0699 22.5015 39.162 21.2353C39.2541 19.9691 38.8037 18.0941 39.298 16.9603C39.7923 15.825 40.9403 15.2956 41.9041 16.125C42.8693 16.9529 42.9176 18.2515 42.8181 19.6176C42.7187 20.9838 42.8006 22.7382 42.9614 24.0323C43.1208 25.3265 44.4619 25.9132 45.5982 25.5015C46.7346 25.0882 47.087 23.6662 47.0592 22.5588C47.03 21.4515 47.1762 19.1706 47.0592 18.1471C46.9422 17.1235 47.8636 15.4382 48.9604 15.5ZM66.3635 25.5C66.8154 25.5471 67.3756 25.55 67.826 25.5C68.3188 25.3838 69.4844 24.6912 69.8369 25.3897C70.1893 26.0882 70.4379 26.9044 70.4584 27.7059C68.8073 28.4618 66.5361 28.6103 64.7534 28.2956C62.9721 27.9794 61.6618 27.0618 60.8179 25.4882C59.9726 23.9147 59.8747 21.6368 60.4128 19.9573C60.951 18.2765 61.9835 17.0309 63.6843 16.4823C65.3852 15.9338 67.6008 15.4235 69.3967 16.4206C71.194 17.4162 69.5956 20.1132 67.8626 18.9926C66.131 17.8706 64.2108 19.6029 63.8818 21.2397C63.5527 22.875 64.3688 25.4544 66.3635 25.5ZM104.826 15.9412C105.679 16.2897 105.183 17.9382 105.265 18.7353C105.347 19.5323 105.275 21.1044 105.265 21.9706C105.254 22.8368 105.364 24.5779 105.265 25.3529C105.165 26.1279 105.681 27.9529 104.928 28.25C104.174 28.5456 102.414 28.4338 101.609 28.2941C100.803 28.1544 101.241 26.225 101.17 25.5C101.098 24.775 101.177 23.1015 101.17 22.2647C101.163 21.4279 101.126 19.6515 101.17 18.8823C101.214 18.1132 100.867 16.3338 101.572 16.0515C102.278 15.7706 104.137 15.6588 104.826 15.9412ZM57.2964 16.0882C58.0159 16.4618 57.4836 18.1147 57.5889 18.8823C57.6941 19.65 57.5801 21.2926 57.5889 22.1176C57.5976 22.9426 57.6854 24.4809 57.5889 25.2059C57.4923 25.9309 57.9896 27.8397 57.2598 28.1103C56.53 28.3809 54.8555 28.3147 54.1272 28.0985C53.3989 27.8823 53.8786 26.0823 53.7865 25.3529C53.6943 24.6235 53.8128 22.9279 53.7865 22.1176C53.7602 21.3073 53.7558 19.7573 53.7865 19.0294C53.8172 18.3015 53.5115 16.4529 54.1887 16.1985C54.8672 15.9456 56.688 15.7721 57.2964 16.0882Z" fill="#776E9C"/>
<path d="M117.403 1.08823C114.235 1.30441 111.076 1.23529 107.897 1.23529C110.91 0.802939 114.352 0.999997 117.403 1.08823Z" fill="#C9C8CD"/>
<path d="M38.577 2.55885C39.5525 2.55885 40.5265 2.55882 41.5019 2.55882C45.4608 2.55882 49.4854 2.41176 53.494 2.41176C56.9556 2.41176 60.4158 2.41179 63.8774 2.41179C59.8074 2.0162 55.3455 2.34561 51.1541 2.26473C46.9627 2.18385 42.5987 2.16767 38.577 2.55885Z" fill="#CBCBCF"/>
<path d="M85.8141 2.41176C78.5267 2.41176 71.1999 2.41179 63.8774 2.41179C60.4158 2.41179 56.9556 2.41176 53.494 2.41176C56.9249 2.74559 60.5825 2.76029 64.1699 2.70588C67.7573 2.65147 71.5626 2.81176 75.1382 2.70588C78.7139 2.6 82.4461 3.0647 85.8141 2.41176Z" fill="#9791AF"/>
<path d="M35.6521 2.70588C37.5869 2.57353 39.6607 2.73823 41.5019 2.55882C40.5265 2.55882 39.5525 2.55885 38.577 2.55885C37.5928 2.55885 36.5369 2.54706 35.6521 2.70588Z" fill="#9F9AB4"/>
<path d="M90.3477 14.4706C90.472 14.35 90.6271 14.3486 90.7865 14.3236C91.2705 14.1588 92.3776 13.9838 92.8339 14.3236C92.907 14.3236 92.9801 14.3236 92.9801 14.3236C93.1425 14.3456 93.4188 14.3985 93.5651 14.4706C92.9509 13.9926 90.5393 13.6132 90.3477 14.4706Z" fill="#C2C1C9"/>
<path d="M90.7865 14.3236C91.4343 14.2236 92.1773 14.3236 92.8339 14.3236C92.3776 13.9838 91.2705 14.1588 90.7865 14.3236Z" fill="#9A94B1"/>
<path d="M26.7312 14.4706C26.6727 14.5059 26.4986 14.7117 26.4387 14.7647C25.9239 15.2206 25.1108 15.9059 24.83 16.5294C24.7598 16.75 24.7291 17.0294 24.6837 17.2647C24.3898 18.7912 24.4015 20.7368 24.6837 22.2647C24.9382 23.6412 25.7762 24.4985 27.0237 25.0588C27.6277 25.2309 28.4188 25.2662 29.0711 25.2059C30.9196 24.8206 32.0428 23.5706 32.2885 21.6765C32.4537 20.4029 32.4537 19.1279 32.2885 17.8529C31.9141 14.9588 29.602 13.6309 26.7312 14.4706Z" fill="#786F9C"/>
<path d="M90.3477 14.4706C90.3258 14.572 90.2643 14.6823 90.2015 14.7647C90.2205 16.1412 90.219 17.603 90.2014 19.1765C90.1839 20.75 90.257 22.2353 90.2014 23.8824C90.1459 25.5294 92.3439 25.4426 93.5651 25.0588C95.2528 24.2559 95.105 21.8544 93.5987 21.3485C92.0924 20.8426 89.9046 20.1588 91.2617 18.772C92.6189 17.3853 94.4791 18.1691 94.1501 15.5C94.0009 14.8206 93.4247 14.7074 92.9801 14.3236C92.9801 14.3236 92.907 14.3236 92.8339 14.3236C92.1773 14.3236 91.4343 14.2236 90.7865 14.3236C90.6271 14.3486 90.472 14.35 90.3477 14.4706Z" fill="#79709D"/>
<path d="M94.1501 15.5C94.0872 14.9941 93.9643 14.7809 93.5651 14.4706C93.4188 14.3985 93.1425 14.3456 92.9801 14.3236C93.4247 14.7074 94.0009 14.8206 94.1501 15.5Z" fill="#9891B0"/>
<path d="M24.3913 17.8529C24.4337 17.7059 24.6369 17.4073 24.6837 17.2647C24.7291 17.0294 24.7598 16.75 24.83 16.5294C25.0874 15.7264 25.7806 15.1676 26.4387 14.7647C26.4986 14.7117 26.6727 14.5059 26.7312 14.4706C25.2512 14.9044 24.5828 16.5 24.3913 17.8529Z" fill="#BFBEC8"/>
<path d="M26.4387 14.7647C25.9239 15.2206 25.1108 15.9059 24.83 16.5294C25.0874 15.7264 25.7806 15.1676 26.4387 14.7647Z" fill="#958FAE"/>
<path d="M90.6402 25.3529C89.6106 24.9323 90.1488 23.25 90.0552 22.2647C89.9616 21.2794 90.083 19.5485 90.0552 18.4412C90.0274 17.3338 89.9704 15.8426 90.2015 14.7647C89.4132 15.8059 89.9616 19.0897 89.909 20.3529C89.8563 21.6162 89.3401 24.9926 90.6402 25.3529Z" fill="#C8C8CD"/>
<path d="M90.6402 25.3529C91.5016 25.5912 92.8953 25.3779 93.5651 25.0588C92.3439 25.4426 90.1459 25.5294 90.2014 23.8824C90.257 22.2353 90.1839 20.75 90.2014 19.1765C90.219 17.603 90.2205 16.1412 90.2015 14.7647C89.9704 15.8426 90.0274 17.3338 90.0552 18.4412C90.083 19.5485 89.9616 21.2794 90.0552 22.2647C90.1488 23.25 89.6106 24.9323 90.6402 25.3529Z" fill="#8E86A9"/>
<path d="M104.826 15.9412C104.137 15.6588 102.278 15.7706 101.572 16.0515C100.867 16.3338 101.214 18.1132 101.17 18.8823C101.126 19.6515 101.163 21.4279 101.17 22.2647C101.177 23.1015 101.098 24.775 101.17 25.5C101.241 26.225 100.803 28.1544 101.609 28.2941C102.414 28.4338 104.174 28.5456 104.928 28.25C105.681 27.9529 105.165 26.1279 105.265 25.3529C105.364 24.5779 105.254 22.8368 105.265 21.9706C105.275 21.1044 105.347 19.5323 105.265 18.7353C105.183 17.9382 105.679 16.2897 104.826 15.9412ZM101.462 27.8529C100.886 27.05 101.408 25.2265 101.316 24.1765C101.224 23.1265 101.202 21.4118 101.316 20.3529C101.43 19.2941 100.876 17.3456 101.462 16.5294C101.999 15.7823 105.219 15.7735 104.972 17.2647C104.725 18.7559 104.962 20.5779 104.972 22.1176C104.982 23.6573 104.697 25.4338 104.972 26.9706C105.247 28.5073 102.06 28.6868 101.462 27.8529Z" fill="#9993B0"/>
<path d="M101.462 27.8529C101 26.9132 101.595 25.0986 101.462 24.0294C101.329 22.9603 101.356 21.2677 101.462 20.2059C101.569 19.1441 101.01 17.4471 101.462 16.5294C100.876 17.3456 101.43 19.2941 101.316 20.3529C101.202 21.4118 101.224 23.1265 101.316 24.1765C101.408 25.2265 100.886 27.05 101.462 27.8529Z" fill="#B3B1BF"/>
<path d="M139.047 21.5294C139.246 20.1323 139.194 18.4823 139.194 16.9706C139.058 18.3765 139.104 20.0147 139.047 21.5294Z" fill="#ACA8BB"/>
<path d="M24.3913 17.8529C24.1719 19.4015 24.2275 20.8515 24.6837 22.2647C24.4015 20.7368 24.3898 18.7912 24.6837 17.2647C24.6369 17.4073 24.4337 17.7059 24.3913 17.8529Z" fill="#9B95B2"/>
<path d="M32.2885 17.8529C32.5956 19.1588 32.5941 20.3779 32.2885 21.6765C32.4537 20.4029 32.4537 19.1279 32.2885 17.8529Z" fill="#AFACBE"/>
<path d="M96.49 19.6176C96.3657 19.2559 95.9036 19.2838 95.6125 19.1765C95.6915 19.0441 95.791 18.8456 95.905 18.7353C95.7208 18.9191 95.2425 18.8044 95.32 19.1764C95.7076 19.347 96.0981 19.4573 96.49 19.6176Z" fill="#AAA6BA"/>
<path d="M115.209 18.7353C113.608 18.4015 111.931 19.2044 111.552 20.7926C111.173 22.3809 111.375 24.2015 112.615 25.1676C113.854 26.1353 116.192 24.9956 116.087 23.5882C115.982 22.1809 116.805 19.0676 115.209 18.7353Z" fill="#7A719D"/>
<path d="M27.0237 25.0588C27.6277 25.2309 28.4188 25.2662 29.0711 25.2059C28.3282 25.3603 27.7256 25.3735 27.0237 25.0588Z" fill="#ADA9BC"/>
<path d="M138.462 26.2353C138.522 25.9221 138.731 25.6412 138.755 25.2059C138.696 25.4926 138.48 25.7823 138.462 26.2353Z" fill="#ADA9BC"/>
<path d="M66.3635 25.5C66.8154 25.5471 67.3756 25.55 67.826 25.5C67.3083 25.6206 66.8725 25.6132 66.3635 25.5Z" fill="#A9A5BB"/>
<path d="M86.2529 25.9412C86.3699 26.5941 86.8788 27.6926 87.5691 28C86.6623 27.6882 86.304 26.8779 86.2529 25.9412Z" fill="#ABA7BB"/>
<path d="M138.316 29.0294C138.35 28.6823 138.462 28.1618 138.462 27.7059C138.429 28.0529 138.316 28.5735 138.316 29.0294Z" fill="#B0ACBE"/>
<path d="M125.446 41.6765C126.069 41.6265 126.587 41.4912 127.055 41.3823C126.453 41.4191 125.957 41.55 125.446 41.6765Z" fill="#AEAABD"/>
<path d="M76.6007 42.7059C77.9973 42.7059 79.2901 42.5588 80.6955 42.5588C85.9955 42.5588 91.4241 42.4118 96.7825 42.4118C93.568 42.0985 89.8724 42.2294 86.5453 42.2647C83.2183 42.3 79.7259 42.1 76.6007 42.7059Z" fill="#9791AF"/>
<path d="M61.9762 42.7059C66.0594 42.7059 70.0826 42.7059 74.1145 42.7059C72.2675 42.3279 70.0226 42.4765 67.9722 42.4118C65.9219 42.3471 63.8715 42.5221 61.9762 42.7059Z" fill="#948DAD"/>
<path d="M80.6955 42.5588C79.2901 42.5588 77.9973 42.7059 76.6007 42.7059C75.7715 42.7059 74.9437 42.7059 74.1145 42.7059C70.0826 42.7059 66.0594 42.7059 61.9762 42.7059C60.0911 42.7059 58.0949 42.8426 56.2726 42.5588C58.6959 43.2735 61.6296 42.6985 64.3161 42.853C67.0026 43.0074 69.9495 42.7294 72.6521 42.853C75.3547 42.9765 78.1538 42.8059 80.6955 42.5588Z" fill="#CCCCCF"/>
</svg>
